<svg width="1000" height="545" viewBox="0 0 1000 545" fill="none" xmlns="http://www.w3.org/2000/svg">
<path d="M0 0H1000V545H0V0Z" fill="black"/>
<path d="M172.888 322.497C170.213 322.497 167.934 321.769 166.052 320.313C164.17 318.845 162.731 316.721 161.737 313.939C160.743 311.145 160.246 307.772 160.246 303.818C160.246 299.888 160.743 296.532 161.737 293.751C162.743 290.957 164.187 288.826 166.07 287.359C167.963 285.879 170.236 285.139 172.888 285.139C175.539 285.139 177.806 285.879 179.688 287.359C181.582 288.826 183.026 290.957 184.021 293.751C185.027 296.532 185.53 299.888 185.53 303.818C185.53 307.772 185.033 311.145 184.038 313.939C183.044 316.721 181.606 318.845 179.724 320.313C177.842 321.769 175.563 322.497 172.888 322.497ZM172.888 318.591C175.539 318.591 177.599 317.312 179.067 314.756C180.534 312.199 181.268 308.553 181.268 303.818C181.268 300.67 180.931 297.988 180.256 295.775C179.593 293.561 178.635 291.875 177.38 290.714C176.137 289.554 174.64 288.974 172.888 288.974C170.26 288.974 168.206 290.271 166.726 292.863C165.247 295.443 164.507 299.095 164.507 303.818C164.507 306.967 164.838 309.642 165.501 311.844C166.164 314.045 167.117 315.72 168.36 316.869C169.615 318.017 171.124 318.591 172.888 318.591ZM194.132 322.284C193.256 322.284 192.505 321.97 191.877 321.343C191.25 320.716 190.936 319.964 190.936 319.088C190.936 318.212 191.25 317.46 191.877 316.833C192.505 316.206 193.256 315.892 194.132 315.892C195.008 315.892 195.76 316.206 196.387 316.833C197.015 317.46 197.328 318.212 197.328 319.088C197.328 319.668 197.18 320.201 196.884 320.686C196.6 321.171 196.216 321.562 195.73 321.858C195.257 322.142 194.724 322.284 194.132 322.284ZM215.408 322.497C213.325 322.497 211.449 322.083 209.78 321.254C208.111 320.426 206.773 319.289 205.767 317.845C204.761 316.401 204.21 314.756 204.116 312.909H208.377C208.543 314.554 209.288 315.916 210.614 316.993C211.952 318.058 213.55 318.591 215.408 318.591C216.9 318.591 218.225 318.242 219.385 317.543C220.557 316.845 221.475 315.886 222.138 314.667C222.812 313.436 223.15 312.045 223.15 310.494C223.15 308.908 222.8 307.494 222.102 306.251C221.415 304.996 220.468 304.008 219.261 303.286C218.054 302.563 216.675 302.196 215.124 302.185C214.011 302.173 212.869 302.344 211.697 302.7C210.525 303.043 209.561 303.487 208.803 304.031L204.684 303.534L206.885 285.636H225.777V289.543H210.579L209.3 300.267H209.513C210.259 299.675 211.194 299.184 212.319 298.793C213.443 298.403 214.615 298.207 215.834 298.207C218.06 298.207 220.042 298.74 221.782 299.805C223.534 300.859 224.907 302.303 225.902 304.138C226.908 305.973 227.411 308.068 227.411 310.423C227.411 312.743 226.89 314.815 225.848 316.638C224.819 318.449 223.398 319.881 221.587 320.935C219.776 321.976 217.716 322.497 215.408 322.497ZM249.166 322V285.636H271.112V289.543H253.57V301.83H269.976V305.736H253.57V318.094H271.396V322H249.166ZM277.06 289.543V285.636H304.333V289.543H292.898V322H288.495V289.543H277.06ZM311.129 322V285.636H315.532V301.83H334.922V285.636H339.325V322H334.922V305.736H315.532V322H311.129Z" fill="white"/>
<path d="M125.868 251.727V174.455H130.818V251.727H125.868ZM138.998 199.961C138.756 197.526 137.72 195.634 135.889 194.286C134.058 192.938 131.572 192.263 128.433 192.263C126.3 192.263 124.499 192.565 123.03 193.169C121.561 193.753 120.434 194.568 119.65 195.614C118.885 196.66 118.502 197.848 118.502 199.176C118.462 200.283 118.694 201.248 119.197 202.074C119.72 202.899 120.434 203.613 121.34 204.217C122.245 204.8 123.292 205.313 124.479 205.756C125.666 206.179 126.934 206.541 128.282 206.843L133.836 208.171C136.533 208.775 139.008 209.579 141.262 210.586C143.516 211.592 145.467 212.829 147.118 214.298C148.768 215.767 150.045 217.498 150.951 219.49C151.877 221.482 152.35 223.766 152.37 226.342C152.35 230.125 151.384 233.405 149.472 236.182C147.58 238.939 144.844 241.082 141.262 242.612C137.7 244.121 133.404 244.875 128.373 244.875C123.382 244.875 119.036 244.111 115.333 242.581C111.651 241.052 108.773 238.788 106.7 235.79C104.648 232.771 103.571 229.038 103.471 224.591H116.118C116.259 226.664 116.852 228.395 117.899 229.783C118.965 231.151 120.384 232.188 122.155 232.892C123.946 233.576 125.968 233.918 128.222 233.918C130.435 233.918 132.357 233.596 133.987 232.952C135.637 232.308 136.915 231.413 137.821 230.266C138.726 229.119 139.179 227.801 139.179 226.312C139.179 224.923 138.766 223.756 137.941 222.81C137.136 221.865 135.949 221.06 134.38 220.396C132.83 219.732 130.929 219.128 128.675 218.585L121.944 216.894C116.732 215.626 112.616 213.644 109.598 210.948C106.58 208.251 105.08 204.619 105.1 200.051C105.08 196.308 106.076 193.038 108.089 190.241C110.121 187.444 112.908 185.261 116.45 183.691C119.992 182.121 124.016 181.337 128.524 181.337C133.112 181.337 137.116 182.121 140.537 183.691C143.978 185.261 146.655 187.444 148.566 190.241C150.478 193.038 151.464 196.278 151.525 199.961H138.998ZM160.799 244V234.582L182.803 214.208C184.675 212.397 186.244 210.767 187.512 209.318C188.8 207.869 189.776 206.45 190.44 205.062C191.104 203.653 191.436 202.134 191.436 200.504C191.436 198.693 191.024 197.133 190.199 195.825C189.374 194.497 188.247 193.481 186.818 192.777C185.389 192.052 183.769 191.69 181.958 191.69C180.067 191.69 178.417 192.072 177.008 192.837C175.599 193.602 174.513 194.698 173.748 196.127C172.983 197.556 172.601 199.256 172.601 201.228H160.195C160.195 197.184 161.111 193.672 162.942 190.694C164.773 187.716 167.339 185.412 170.639 183.782C173.939 182.152 177.742 181.337 182.049 181.337C186.476 181.337 190.329 182.121 193.609 183.691C196.91 185.241 199.475 187.394 201.307 190.151C203.138 192.907 204.053 196.067 204.053 199.629C204.053 201.963 203.591 204.267 202.665 206.541C201.759 208.815 200.139 211.34 197.805 214.117C195.471 216.874 192.181 220.184 187.935 224.048L178.91 232.892V233.315H204.868V244H160.799ZM228.435 235.548L228.103 238.869C227.841 241.525 227.338 244.171 226.594 246.807C225.869 249.463 225.105 251.868 224.3 254.021C223.515 256.174 222.881 257.865 222.398 259.092H214.067C214.369 257.905 214.781 256.245 215.305 254.112C215.828 251.999 216.321 249.624 216.784 246.988C217.247 244.352 217.538 241.666 217.659 238.929L217.81 235.548H228.435ZM261.306 244.845C258.127 244.825 255.058 244.292 252.1 243.245C249.162 242.199 246.526 240.499 244.191 238.144C241.857 235.79 240.006 232.671 238.637 228.787C237.289 224.903 236.615 220.134 236.615 214.479C236.635 209.288 237.229 204.649 238.396 200.564C239.583 196.459 241.274 192.978 243.467 190.12C245.681 187.263 248.327 185.09 251.406 183.6C254.484 182.091 257.935 181.337 261.759 181.337C265.884 181.337 269.526 182.142 272.686 183.751C275.845 185.341 278.381 187.504 280.292 190.241C282.224 192.978 283.391 196.047 283.794 199.447H270.905C270.402 197.294 269.345 195.604 267.735 194.376C266.126 193.149 264.133 192.535 261.759 192.535C257.734 192.535 254.676 194.286 252.583 197.787C250.51 201.289 249.454 206.048 249.413 212.065H249.836C250.762 210.233 252.009 208.674 253.579 207.386C255.169 206.078 256.97 205.082 258.982 204.398C261.014 203.693 263.157 203.341 265.411 203.341C269.074 203.341 272.334 204.207 275.191 205.937C278.049 207.648 280.302 210.002 281.952 213C283.603 215.999 284.428 219.43 284.428 223.293C284.428 227.479 283.452 231.202 281.5 234.462C279.568 237.722 276.861 240.277 273.38 242.129C269.919 243.96 265.894 244.865 261.306 244.845ZM261.246 234.582C263.258 234.582 265.059 234.099 266.649 233.134C268.239 232.168 269.486 230.86 270.392 229.21C271.297 227.559 271.75 225.708 271.75 223.656C271.75 221.603 271.297 219.762 270.392 218.132C269.506 216.502 268.279 215.204 266.709 214.238C265.14 213.272 263.349 212.789 261.336 212.789C259.827 212.789 258.429 213.071 257.141 213.634C255.873 214.198 254.756 214.982 253.79 215.989C252.844 216.995 252.1 218.162 251.556 219.49C251.013 220.798 250.741 222.197 250.741 223.686C250.741 225.678 251.194 227.499 252.1 229.149C253.025 230.799 254.273 232.117 255.843 233.103C257.432 234.089 259.233 234.582 261.246 234.582ZM316.061 181.337C319.241 181.337 322.299 181.87 325.237 182.936C328.195 184.003 330.831 185.703 333.146 188.038C335.48 190.372 337.321 193.471 338.669 197.335C340.038 201.178 340.732 205.897 340.752 211.491C340.752 216.743 340.159 221.432 338.971 225.557C337.804 229.662 336.124 233.154 333.93 236.031C331.737 238.909 329.091 241.102 325.992 242.612C322.893 244.101 319.432 244.845 315.608 244.845C311.483 244.845 307.841 244.05 304.681 242.461C301.522 240.851 298.977 238.667 297.045 235.911C295.133 233.134 293.976 230.014 293.574 226.553H306.462C306.965 228.807 308.022 230.558 309.632 231.805C311.242 233.033 313.234 233.647 315.608 233.647C319.633 233.647 322.692 231.896 324.784 228.395C326.877 224.873 327.934 220.054 327.954 213.936H327.531C326.606 215.747 325.358 217.307 323.788 218.615C322.219 219.903 320.418 220.899 318.385 221.603C316.373 222.307 314.23 222.659 311.956 222.659C308.314 222.659 305.064 221.804 302.206 220.094C299.349 218.383 297.095 216.029 295.445 213.031C293.795 210.032 292.97 206.611 292.97 202.768C292.95 198.622 293.906 194.93 295.837 191.69C297.769 188.45 300.466 185.915 303.927 184.083C307.408 182.232 311.453 181.317 316.061 181.337ZM316.152 191.599C314.119 191.599 312.308 192.082 310.718 193.048C309.149 194.014 307.901 195.312 306.975 196.942C306.07 198.572 305.627 200.393 305.647 202.406C305.647 204.438 306.09 206.269 306.975 207.899C307.881 209.509 309.109 210.797 310.658 211.763C312.228 212.709 314.019 213.181 316.031 213.181C317.54 213.181 318.939 212.9 320.227 212.336C321.514 211.773 322.631 210.998 323.577 210.012C324.543 209.006 325.298 207.849 325.841 206.541C326.384 205.233 326.656 203.844 326.656 202.375C326.636 200.423 326.173 198.632 325.267 197.002C324.362 195.373 323.114 194.065 321.525 193.078C319.935 192.092 318.144 191.599 316.152 191.599ZM372.174 181.337C375.354 181.337 378.413 181.87 381.35 182.936C384.309 184.003 386.945 185.703 389.259 188.038C391.593 190.372 393.434 193.471 394.783 197.335C396.151 201.178 396.845 205.897 396.865 211.491C396.865 216.743 396.272 221.432 395.085 225.557C393.917 229.662 392.237 233.154 390.044 236.031C387.85 238.909 385.204 241.102 382.105 242.612C379.006 244.101 375.545 244.845 371.722 244.845C367.596 244.845 363.954 244.05 360.795 242.461C357.635 240.851 355.09 238.667 353.158 235.911C351.246 233.134 350.089 230.014 349.687 226.553H362.576C363.079 228.807 364.135 230.558 365.745 231.805C367.355 233.033 369.347 233.647 371.722 233.647C375.746 233.647 378.805 231.896 380.898 228.395C382.991 224.873 384.047 220.054 384.067 213.936H383.645C382.719 215.747 381.471 217.307 379.902 218.615C378.332 219.903 376.531 220.899 374.499 221.603C372.486 222.307 370.343 222.659 368.069 222.659C364.427 222.659 361.177 221.804 358.32 220.094C355.462 218.383 353.208 216.029 351.558 213.031C349.908 210.032 349.083 206.611 349.083 202.768C349.063 198.622 350.019 194.93 351.951 191.69C353.882 188.45 356.579 185.915 360.04 184.083C363.521 182.232 367.566 181.317 372.174 181.337ZM372.265 191.599C370.232 191.599 368.421 192.082 366.832 193.048C365.262 194.014 364.014 195.312 363.089 196.942C362.183 198.572 361.741 200.393 361.761 202.406C361.761 204.438 362.203 206.269 363.089 207.899C363.994 209.509 365.222 210.797 366.771 211.763C368.341 212.709 370.132 213.181 372.144 213.181C373.653 213.181 375.052 212.9 376.34 212.336C377.628 211.773 378.745 210.998 379.69 210.012C380.656 209.006 381.411 207.849 381.954 206.541C382.498 205.233 382.769 203.844 382.769 202.375C382.749 200.423 382.286 198.632 381.381 197.002C380.475 195.373 379.228 194.065 377.638 193.078C376.048 192.092 374.257 191.599 372.265 191.599Z" fill="white"/>
<path d="M221.546 484.284C220.232 484.284 219.099 483.994 218.146 483.414C217.199 482.828 216.468 482.011 215.953 480.964C215.444 479.91 215.19 478.685 215.19 477.288C215.19 475.892 215.444 474.661 215.953 473.595C216.468 472.524 217.184 471.689 218.101 471.092C219.025 470.488 220.102 470.186 221.333 470.186C222.043 470.186 222.745 470.304 223.437 470.541C224.13 470.778 224.76 471.163 225.328 471.695C225.896 472.222 226.349 472.92 226.686 473.79C227.024 474.661 227.192 475.732 227.192 477.004V477.892H216.681V476.081H225.062C225.062 475.312 224.908 474.625 224.6 474.021C224.298 473.418 223.866 472.941 223.304 472.592C222.748 472.243 222.091 472.068 221.333 472.068C220.498 472.068 219.776 472.275 219.167 472.69C218.563 473.098 218.099 473.631 217.773 474.288C217.447 474.945 217.285 475.649 217.285 476.401V477.608C217.285 478.638 217.462 479.511 217.817 480.227C218.178 480.937 218.679 481.479 219.318 481.852C219.957 482.219 220.7 482.402 221.546 482.402C222.097 482.402 222.594 482.325 223.038 482.171C223.487 482.011 223.875 481.775 224.201 481.461C224.526 481.141 224.778 480.745 224.955 480.271L226.979 480.839C226.766 481.526 226.408 482.13 225.905 482.651C225.402 483.165 224.781 483.568 224.041 483.858C223.301 484.142 222.469 484.284 221.546 484.284ZM232.475 475.797V484H230.38V470.364H232.404V472.494H232.581C232.901 471.802 233.386 471.246 234.037 470.825C234.688 470.399 235.529 470.186 236.559 470.186C237.482 470.186 238.29 470.375 238.982 470.754C239.675 471.127 240.213 471.695 240.598 472.459C240.983 473.216 241.175 474.175 241.175 475.335V484H239.08V475.477C239.08 474.406 238.802 473.571 238.245 472.974C237.689 472.37 236.925 472.068 235.955 472.068C235.286 472.068 234.688 472.213 234.161 472.503C233.641 472.793 233.229 473.216 232.927 473.773C232.626 474.329 232.475 475.004 232.475 475.797ZM250.543 484.284C249.265 484.284 248.164 483.982 247.241 483.379C246.317 482.775 245.607 481.943 245.11 480.884C244.613 479.824 244.364 478.614 244.364 477.253C244.364 475.868 244.619 474.646 245.128 473.586C245.643 472.521 246.359 471.689 247.276 471.092C248.2 470.488 249.277 470.186 250.508 470.186C251.467 470.186 252.331 470.364 253.1 470.719C253.87 471.074 254.5 471.571 254.991 472.21C255.482 472.849 255.787 473.595 255.906 474.447H253.81C253.651 473.826 253.295 473.276 252.745 472.796C252.201 472.311 251.467 472.068 250.543 472.068C249.727 472.068 249.01 472.281 248.395 472.707C247.785 473.128 247.309 473.722 246.966 474.492C246.628 475.255 246.46 476.152 246.46 477.182C246.46 478.235 246.625 479.153 246.957 479.934C247.294 480.715 247.768 481.322 248.377 481.754C248.993 482.186 249.715 482.402 250.543 482.402C251.088 482.402 251.582 482.307 252.026 482.118C252.47 481.929 252.846 481.656 253.153 481.301C253.461 480.946 253.68 480.52 253.81 480.023H255.906C255.787 480.828 255.494 481.553 255.027 482.198C254.565 482.837 253.952 483.346 253.189 483.725C252.431 484.098 251.549 484.284 250.543 484.284ZM258.968 484V470.364H260.993V472.423H261.135C261.383 471.749 261.833 471.201 262.484 470.781C263.135 470.361 263.869 470.151 264.686 470.151C264.84 470.151 265.032 470.154 265.263 470.159C265.494 470.165 265.668 470.174 265.787 470.186V472.317C265.716 472.299 265.553 472.272 265.298 472.237C265.05 472.195 264.786 472.175 264.508 472.175C263.845 472.175 263.253 472.314 262.733 472.592C262.218 472.864 261.809 473.243 261.507 473.728C261.212 474.208 261.064 474.755 261.064 475.371V484H258.968ZM270.035 489.114C269.68 489.114 269.363 489.084 269.085 489.025C268.807 488.972 268.614 488.918 268.508 488.865L269.04 487.018C269.549 487.149 269.999 487.196 270.39 487.161C270.78 487.125 271.127 486.95 271.428 486.637C271.736 486.329 272.017 485.829 272.272 485.136L272.662 484.071L267.62 470.364H269.893L273.657 481.23H273.799L277.563 470.364H279.836L274.047 485.989C273.787 486.693 273.464 487.276 273.08 487.738C272.695 488.205 272.248 488.551 271.739 488.776C271.236 489.001 270.668 489.114 270.035 489.114ZM282.601 489.114V470.364H284.625V472.53H284.874C285.028 472.293 285.241 471.991 285.513 471.624C285.791 471.251 286.188 470.92 286.703 470.63C287.224 470.334 287.928 470.186 288.816 470.186C289.964 470.186 290.976 470.473 291.852 471.047C292.728 471.621 293.411 472.435 293.903 473.489C294.394 474.542 294.64 475.785 294.64 477.217C294.64 478.661 294.394 479.913 293.903 480.973C293.411 482.026 292.731 482.843 291.861 483.423C290.991 483.997 289.988 484.284 288.851 484.284C287.975 484.284 287.274 484.139 286.747 483.849C286.22 483.553 285.815 483.219 285.531 482.846C285.247 482.467 285.028 482.153 284.874 481.905H284.696V489.114H282.601ZM284.661 477.182C284.661 478.212 284.812 479.12 285.114 479.907C285.415 480.689 285.856 481.301 286.436 481.745C287.016 482.183 287.727 482.402 288.567 482.402C289.443 482.402 290.174 482.171 290.76 481.71C291.352 481.242 291.796 480.615 292.092 479.827C292.393 479.034 292.544 478.152 292.544 477.182C292.544 476.223 292.396 475.359 292.1 474.589C291.81 473.814 291.37 473.202 290.778 472.752C290.192 472.296 289.455 472.068 288.567 472.068C287.715 472.068 286.999 472.284 286.419 472.716C285.839 473.142 285.401 473.74 285.105 474.51C284.809 475.273 284.661 476.164 284.661 477.182ZM303.766 470.364V472.139H296.699V470.364H303.766ZM298.759 467.097H300.854V480.094C300.854 480.686 300.94 481.129 301.112 481.425C301.289 481.715 301.514 481.911 301.786 482.011C302.064 482.106 302.357 482.153 302.665 482.153C302.896 482.153 303.085 482.142 303.233 482.118C303.381 482.088 303.5 482.065 303.588 482.047L304.015 483.929C303.873 483.982 303.674 484.036 303.42 484.089C303.165 484.148 302.843 484.178 302.452 484.178C301.86 484.178 301.28 484.05 300.712 483.796C300.15 483.541 299.682 483.154 299.309 482.633C298.942 482.112 298.759 481.455 298.759 480.662V467.097ZM312.488 484.284C311.175 484.284 310.041 483.994 309.088 483.414C308.141 482.828 307.41 482.011 306.895 480.964C306.386 479.91 306.132 478.685 306.132 477.288C306.132 475.892 306.386 474.661 306.895 473.595C307.41 472.524 308.126 471.689 309.044 471.092C309.967 470.488 311.044 470.186 312.275 470.186C312.986 470.186 313.687 470.304 314.379 470.541C315.072 470.778 315.702 471.163 316.27 471.695C316.839 472.222 317.291 472.92 317.629 473.79C317.966 474.661 318.135 475.732 318.135 477.004V477.892H307.623V476.081H316.004C316.004 475.312 315.85 474.625 315.542 474.021C315.241 473.418 314.809 472.941 314.246 472.592C313.69 472.243 313.033 472.068 312.275 472.068C311.441 472.068 310.719 472.275 310.109 472.69C309.506 473.098 309.041 473.631 308.715 474.288C308.39 474.945 308.227 475.649 308.227 476.401V477.608C308.227 478.638 308.405 479.511 308.76 480.227C309.121 480.937 309.621 481.479 310.26 481.852C310.899 482.219 311.642 482.402 312.488 482.402C313.039 482.402 313.536 482.325 313.98 482.171C314.43 482.011 314.817 481.775 315.143 481.461C315.468 481.141 315.72 480.745 315.898 480.271L317.922 480.839C317.709 481.526 317.351 482.13 316.847 482.651C316.344 483.165 315.723 483.568 314.983 483.858C314.243 484.142 313.412 484.284 312.488 484.284ZM326.471 484.284C325.335 484.284 324.331 483.997 323.461 483.423C322.591 482.843 321.911 482.026 321.42 480.973C320.928 479.913 320.683 478.661 320.683 477.217C320.683 475.785 320.928 474.542 321.42 473.489C321.911 472.435 322.594 471.621 323.47 471.047C324.346 470.473 325.358 470.186 326.507 470.186C327.394 470.186 328.096 470.334 328.611 470.63C329.131 470.92 329.528 471.251 329.8 471.624C330.078 471.991 330.294 472.293 330.448 472.53H330.626V465.818H332.721V484H330.697V481.905H330.448C330.294 482.153 330.075 482.467 329.791 482.846C329.507 483.219 329.102 483.553 328.575 483.849C328.048 484.139 327.347 484.284 326.471 484.284ZM326.755 482.402C327.596 482.402 328.306 482.183 328.886 481.745C329.466 481.301 329.907 480.689 330.209 479.907C330.51 479.12 330.661 478.212 330.661 477.182C330.661 476.164 330.513 475.273 330.218 474.51C329.922 473.74 329.484 473.142 328.904 472.716C328.324 472.284 327.607 472.068 326.755 472.068C325.867 472.068 325.128 472.296 324.536 472.752C323.95 473.202 323.509 473.814 323.213 474.589C322.923 475.359 322.778 476.223 322.778 477.182C322.778 478.152 322.926 479.034 323.222 479.827C323.524 480.615 323.968 481.242 324.553 481.71C325.145 482.171 325.879 482.402 326.755 482.402ZM341.998 484.284C340.862 484.284 339.859 483.997 338.989 483.423C338.119 482.843 337.438 482.026 336.947 480.973C336.456 479.913 336.21 478.661 336.21 477.217C336.21 475.785 336.456 474.542 336.947 473.489C337.438 472.435 338.122 471.621 338.998 471.047C339.874 470.473 340.886 470.186 342.034 470.186C342.922 470.186 343.623 470.334 344.138 470.63C344.659 470.92 345.055 471.251 345.328 471.624C345.606 471.991 345.822 472.293 345.976 472.53H346.153V465.818H348.248V484H346.224V481.905H345.976C345.822 482.153 345.603 482.467 345.319 482.846C345.035 483.219 344.629 483.553 344.102 483.849C343.576 484.139 342.874 484.284 341.998 484.284ZM342.282 482.402C343.123 482.402 343.833 482.183 344.413 481.745C344.993 481.301 345.434 480.689 345.736 479.907C346.038 479.12 346.189 478.212 346.189 477.182C346.189 476.164 346.041 475.273 345.745 474.51C345.449 473.74 345.011 473.142 344.431 472.716C343.851 472.284 343.135 472.068 342.282 472.068C341.395 472.068 340.655 472.296 340.063 472.752C339.477 473.202 339.036 473.814 338.74 474.589C338.45 475.359 338.305 476.223 338.305 477.182C338.305 478.152 338.453 479.034 338.749 479.827C339.051 480.615 339.495 481.242 340.081 481.71C340.673 482.171 341.407 482.402 342.282 482.402ZM358.094 484.284C356.78 484.284 355.647 483.994 354.694 483.414C353.747 482.828 353.016 482.011 352.501 480.964C351.992 479.91 351.737 478.685 351.737 477.288C351.737 475.892 351.992 474.661 352.501 473.595C353.016 472.524 353.732 471.689 354.649 471.092C355.573 470.488 356.65 470.186 357.881 470.186C358.591 470.186 359.292 470.304 359.985 470.541C360.677 470.778 361.308 471.163 361.876 471.695C362.444 472.222 362.897 472.92 363.234 473.79C363.572 474.661 363.74 475.732 363.74 477.004V477.892H353.229V476.081H361.61C361.61 475.312 361.456 474.625 361.148 474.021C360.846 473.418 360.414 472.941 359.852 472.592C359.295 472.243 358.638 472.068 357.881 472.068C357.046 472.068 356.324 472.275 355.715 472.69C355.111 473.098 354.646 473.631 354.321 474.288C353.995 474.945 353.833 475.649 353.833 476.401V477.608C353.833 478.638 354.01 479.511 354.365 480.227C354.726 480.937 355.226 481.479 355.866 481.852C356.505 482.219 357.248 482.402 358.094 482.402C358.644 482.402 359.142 482.325 359.585 482.171C360.035 482.011 360.423 481.775 360.748 481.461C361.074 481.141 361.325 480.745 361.503 480.271L363.527 480.839C363.314 481.526 362.956 482.13 362.453 482.651C361.95 483.165 361.328 483.568 360.589 483.858C359.849 484.142 359.017 484.284 358.094 484.284ZM372.432 489.398C371.42 489.398 370.55 489.268 369.822 489.007C369.094 488.753 368.487 488.415 368.002 487.995C367.522 487.581 367.14 487.137 366.856 486.663L368.525 485.491C368.715 485.74 368.954 486.024 369.244 486.344C369.535 486.669 369.931 486.95 370.434 487.187C370.943 487.43 371.609 487.551 372.432 487.551C373.532 487.551 374.441 487.285 375.157 486.752C375.873 486.219 376.231 485.385 376.231 484.249V481.479H376.054C375.9 481.727 375.681 482.035 375.397 482.402C375.119 482.763 374.716 483.086 374.189 483.37C373.669 483.648 372.964 483.787 372.077 483.787C370.976 483.787 369.987 483.527 369.111 483.006C368.241 482.485 367.552 481.727 367.043 480.733C366.54 479.739 366.288 478.531 366.288 477.111C366.288 475.714 366.534 474.498 367.025 473.462C367.516 472.42 368.2 471.615 369.076 471.047C369.952 470.473 370.964 470.186 372.112 470.186C373 470.186 373.704 470.334 374.225 470.63C374.752 470.92 375.154 471.251 375.432 471.624C375.716 471.991 375.935 472.293 376.089 472.53H376.302V470.364H378.327V484.391C378.327 485.562 378.06 486.515 377.528 487.249C377.001 487.989 376.291 488.531 375.397 488.874C374.509 489.223 373.521 489.398 372.432 489.398ZM372.361 481.905C373.201 481.905 373.911 481.712 374.491 481.328C375.071 480.943 375.512 480.39 375.814 479.668C376.116 478.946 376.267 478.081 376.267 477.075C376.267 476.093 376.119 475.226 375.823 474.474C375.527 473.722 375.089 473.134 374.509 472.707C373.929 472.281 373.213 472.068 372.361 472.068C371.473 472.068 370.733 472.293 370.141 472.743C369.555 473.193 369.114 473.796 368.818 474.554C368.528 475.312 368.383 476.152 368.383 477.075C368.383 478.022 368.531 478.86 368.827 479.588C369.129 480.31 369.573 480.878 370.159 481.292C370.751 481.701 371.485 481.905 372.361 481.905ZM387.879 484.284C386.565 484.284 385.432 483.994 384.479 483.414C383.532 482.828 382.801 482.011 382.286 480.964C381.777 479.91 381.523 478.685 381.523 477.288C381.523 475.892 381.777 474.661 382.286 473.595C382.801 472.524 383.517 471.689 384.434 471.092C385.358 470.488 386.435 470.186 387.666 470.186C388.376 470.186 389.078 470.304 389.77 470.541C390.463 470.778 391.093 471.163 391.661 471.695C392.229 472.222 392.682 472.92 393.019 473.79C393.357 474.661 393.525 475.732 393.525 477.004V477.892H383.014V476.081H391.395C391.395 475.312 391.241 474.625 390.933 474.021C390.631 473.418 390.199 472.941 389.637 472.592C389.081 472.243 388.424 472.068 387.666 472.068C386.831 472.068 386.109 472.275 385.5 472.69C384.896 473.098 384.432 473.631 384.106 474.288C383.78 474.945 383.618 475.649 383.618 476.401V477.608C383.618 478.638 383.795 479.511 384.15 480.227C384.511 480.937 385.012 481.479 385.651 481.852C386.29 482.219 387.033 482.402 387.879 482.402C388.43 482.402 388.927 482.325 389.371 482.171C389.82 482.011 390.208 481.775 390.534 481.461C390.859 481.141 391.111 480.745 391.288 480.271L393.312 480.839C393.099 481.526 392.741 482.13 392.238 482.651C391.735 483.165 391.114 483.568 390.374 483.858C389.634 484.142 388.802 484.284 387.879 484.284ZM398.808 475.797V484H396.713V470.364H398.737V472.494H398.914C399.234 471.802 399.719 471.246 400.37 470.825C401.021 470.399 401.862 470.186 402.892 470.186C403.815 470.186 404.623 470.375 405.315 470.754C406.008 471.127 406.546 471.695 406.931 472.459C407.316 473.216 407.508 474.175 407.508 475.335V484H405.413V475.477C405.413 474.406 405.135 473.571 404.578 472.974C404.022 472.37 403.258 472.068 402.288 472.068C401.619 472.068 401.021 472.213 400.494 472.503C399.974 472.793 399.562 473.216 399.26 473.773C398.959 474.329 398.808 475.004 398.808 475.797ZM412.864 484.142C412.426 484.142 412.05 483.985 411.736 483.672C411.422 483.358 411.266 482.982 411.266 482.544C411.266 482.106 411.422 481.73 411.736 481.417C412.05 481.103 412.426 480.946 412.864 480.946C413.302 480.946 413.677 481.103 413.991 481.417C414.305 481.73 414.462 482.106 414.462 482.544C414.462 482.834 414.388 483.1 414.24 483.343C414.098 483.586 413.905 483.781 413.663 483.929C413.426 484.071 413.159 484.142 412.864 484.142ZM423.939 484.284C422.625 484.284 421.491 483.994 420.538 483.414C419.591 482.828 418.861 482.011 418.346 480.964C417.837 479.91 417.582 478.685 417.582 477.288C417.582 475.892 417.837 474.661 418.346 473.595C418.861 472.524 419.577 471.689 420.494 471.092C421.417 470.488 422.495 470.186 423.726 470.186C424.436 470.186 425.137 470.304 425.83 470.541C426.522 470.778 427.152 471.163 427.721 471.695C428.289 472.222 428.742 472.92 429.079 473.79C429.416 474.661 429.585 475.732 429.585 477.004V477.892H419.074V476.081H427.454C427.454 475.312 427.3 474.625 426.993 474.021C426.691 473.418 426.259 472.941 425.696 472.592C425.14 472.243 424.483 472.068 423.726 472.068C422.891 472.068 422.169 472.275 421.559 472.69C420.956 473.098 420.491 473.631 420.166 474.288C419.84 474.945 419.677 475.649 419.677 476.401V477.608C419.677 478.638 419.855 479.511 420.21 480.227C420.571 480.937 421.071 481.479 421.71 481.852C422.35 482.219 423.092 482.402 423.939 482.402C424.489 482.402 424.986 482.325 425.43 482.171C425.88 482.011 426.268 481.775 426.593 481.461C426.919 481.141 427.17 480.745 427.348 480.271L429.372 480.839C429.159 481.526 428.801 482.13 428.298 482.651C427.795 483.165 427.173 483.568 426.433 483.858C425.694 484.142 424.862 484.284 423.939 484.284ZM438.703 470.364V472.139H431.636V470.364H438.703ZM433.695 467.097H435.791V480.094C435.791 480.686 435.876 481.129 436.048 481.425C436.226 481.715 436.45 481.911 436.723 482.011C437.001 482.106 437.294 482.153 437.602 482.153C437.832 482.153 438.022 482.142 438.17 482.118C438.318 482.088 438.436 482.065 438.525 482.047L438.951 483.929C438.809 483.982 438.611 484.036 438.356 484.089C438.102 484.148 437.779 484.178 437.389 484.178C436.797 484.178 436.217 484.05 435.649 483.796C435.086 483.541 434.619 483.154 434.246 482.633C433.879 482.112 433.695 481.455 433.695 480.662V467.097ZM444.242 475.797V484H442.147V465.818H444.242V472.494H444.42C444.739 471.79 445.219 471.231 445.858 470.816C446.503 470.396 447.361 470.186 448.433 470.186C449.362 470.186 450.176 470.373 450.874 470.745C451.572 471.112 452.114 471.678 452.499 472.441C452.889 473.199 453.085 474.163 453.085 475.335V484H450.989V475.477C450.989 474.394 450.708 473.557 450.146 472.965C449.59 472.367 448.817 472.068 447.829 472.068C447.142 472.068 446.527 472.213 445.982 472.503C445.444 472.793 445.018 473.216 444.704 473.773C444.396 474.329 444.242 475.004 444.242 475.797Z" fill="white"/>
<circle cx="182" cy="475" r="25" fill="#D9D9D9"/>
<path d="M46.8963 486V464.182H55.6321C57.2372 464.182 58.576 464.42 59.6484 464.896C60.7209 465.371 61.527 466.032 62.0668 466.877C62.6065 467.715 62.8764 468.681 62.8764 469.775C62.8764 470.627 62.706 471.376 62.3651 472.023C62.0241 472.662 61.5554 473.187 60.9588 473.599C60.3693 474.004 59.6946 474.292 58.9347 474.462V474.675C59.7656 474.711 60.5433 474.945 61.2678 475.379C61.9993 475.812 62.5923 476.419 63.0469 477.2C63.5014 477.974 63.7287 478.898 63.7287 479.97C63.7287 481.128 63.4411 482.161 62.8658 483.07C62.2976 483.972 61.456 484.686 60.3409 485.212C59.2259 485.737 57.8516 486 56.218 486H46.8963ZM51.5092 482.229H55.2699C56.5554 482.229 57.4929 481.984 58.0824 481.494C58.6719 480.996 58.9666 480.336 58.9666 479.512C58.9666 478.908 58.821 478.376 58.5298 477.914C58.2386 477.452 57.8232 477.09 57.2834 476.827C56.7507 476.565 56.1151 476.433 55.3764 476.433H51.5092V482.229ZM51.5092 473.312H54.929C55.5611 473.312 56.1222 473.202 56.6122 472.982C57.1094 472.754 57.5 472.435 57.7841 472.023C58.0753 471.611 58.2209 471.117 58.2209 470.542C58.2209 469.754 57.9403 469.118 57.3793 468.635C56.8253 468.152 56.0369 467.911 55.0142 467.911H51.5092V473.312ZM77.1387 479.033V469.636H81.677V486H77.3198V483.028H77.1493C76.78 483.987 76.1657 484.757 75.3063 485.339C74.454 485.922 73.4135 486.213 72.1848 486.213C71.0911 486.213 70.1287 485.964 69.2978 485.467C68.4668 484.97 67.8169 484.263 67.3482 483.347C66.8865 482.431 66.6522 481.334 66.6451 480.055V469.636H71.1834V479.246C71.1905 480.212 71.4498 480.975 71.9611 481.536C72.4725 482.097 73.1578 482.378 74.0172 482.378C74.5641 482.378 75.0755 482.254 75.5513 482.005C76.0272 481.749 76.4107 481.373 76.7019 480.876C77.0002 480.379 77.1458 479.764 77.1387 479.033ZM88.109 492.136C87.5337 492.136 86.994 492.09 86.4897 491.998C85.9925 491.913 85.5806 491.803 85.2539 491.668L86.2766 488.28C86.8093 488.443 87.2887 488.532 87.7148 488.546C88.1481 488.56 88.521 488.461 88.8335 488.248C89.1531 488.035 89.4123 487.673 89.6112 487.161L89.8775 486.469L84.0075 469.636H88.7802L92.168 481.653H92.3384L95.7582 469.636H100.563L94.2028 487.768C93.8974 488.649 93.4819 489.416 92.9563 490.07C92.4379 490.73 91.7809 491.238 90.9854 491.593C90.19 491.955 89.2312 492.136 88.109 492.136ZM109.815 486.32C108.132 486.32 106.683 485.979 105.469 485.297C104.261 484.608 103.331 483.635 102.678 482.378C102.024 481.114 101.697 479.619 101.697 477.893C101.697 476.21 102.024 474.732 102.678 473.461C103.331 472.19 104.251 471.199 105.437 470.489C106.63 469.778 108.029 469.423 109.634 469.423C110.714 469.423 111.719 469.597 112.649 469.945C113.587 470.286 114.403 470.801 115.099 471.49C115.803 472.179 116.349 473.045 116.74 474.089C117.131 475.126 117.326 476.341 117.326 477.733V478.979H103.509V476.167H113.054C113.054 475.513 112.912 474.935 112.628 474.43C112.344 473.926 111.95 473.532 111.445 473.248C110.948 472.957 110.369 472.811 109.709 472.811C109.02 472.811 108.409 472.971 107.876 473.29C107.351 473.603 106.939 474.026 106.641 474.558C106.342 475.084 106.19 475.67 106.183 476.316V478.99C106.183 479.8 106.332 480.499 106.63 481.089C106.935 481.678 107.365 482.133 107.919 482.452C108.473 482.772 109.13 482.932 109.89 482.932C110.394 482.932 110.856 482.861 111.275 482.719C111.694 482.577 112.053 482.364 112.351 482.08C112.649 481.795 112.876 481.447 113.033 481.036L117.23 481.312C117.017 482.321 116.58 483.202 115.92 483.955C115.266 484.7 114.421 485.283 113.384 485.702C112.354 486.114 111.165 486.32 109.815 486.32ZM120.288 486V469.636H124.688V472.491H124.858C125.156 471.476 125.657 470.709 126.36 470.19C127.063 469.665 127.873 469.402 128.789 469.402C129.016 469.402 129.261 469.416 129.524 469.445C129.787 469.473 130.018 469.512 130.217 469.562V473.589C130.004 473.525 129.709 473.468 129.332 473.418C128.956 473.369 128.612 473.344 128.299 473.344C127.631 473.344 127.035 473.489 126.509 473.781C125.991 474.065 125.579 474.462 125.273 474.974C124.975 475.485 124.826 476.075 124.826 476.742V486H120.288Z" fill="white"/>
<path d="M310.895 401.284C309.616 401.284 308.516 400.982 307.592 400.379C306.669 399.775 305.959 398.943 305.462 397.884C304.964 396.824 304.716 395.614 304.716 394.253C304.716 392.868 304.97 391.646 305.479 390.586C305.994 389.521 306.71 388.689 307.628 388.092C308.551 387.488 309.628 387.186 310.859 387.186C311.818 387.186 312.682 387.364 313.452 387.719C314.221 388.074 314.851 388.571 315.343 389.21C315.834 389.849 316.139 390.595 316.257 391.447H314.162C314.002 390.826 313.647 390.276 313.097 389.796C312.552 389.311 311.818 389.068 310.895 389.068C310.078 389.068 309.362 389.281 308.746 389.707C308.137 390.128 307.66 390.722 307.317 391.492C306.98 392.255 306.811 393.152 306.811 394.182C306.811 395.235 306.977 396.153 307.308 396.934C307.646 397.715 308.119 398.322 308.729 398.754C309.344 399.186 310.066 399.402 310.895 399.402C311.439 399.402 311.934 399.307 312.377 399.118C312.821 398.929 313.197 398.656 313.505 398.301C313.813 397.946 314.032 397.52 314.162 397.023H316.257C316.139 397.828 315.846 398.553 315.378 399.198C314.917 399.837 314.304 400.346 313.54 400.725C312.783 401.098 311.901 401.284 310.895 401.284ZM323.333 401.32C322.469 401.32 321.684 401.157 320.98 400.831C320.276 400.5 319.717 400.023 319.302 399.402C318.888 398.775 318.681 398.017 318.681 397.129C318.681 396.348 318.835 395.715 319.142 395.229C319.45 394.738 319.862 394.353 320.376 394.075C320.891 393.797 321.46 393.59 322.081 393.454C322.708 393.312 323.339 393.199 323.972 393.116C324.801 393.01 325.472 392.93 325.987 392.877C326.508 392.818 326.887 392.72 327.124 392.584C327.366 392.448 327.488 392.211 327.488 391.874V391.803C327.488 390.927 327.248 390.246 326.768 389.761C326.295 389.275 325.576 389.033 324.611 389.033C323.611 389.033 322.827 389.252 322.259 389.69C321.69 390.128 321.291 390.595 321.06 391.092L319.071 390.382C319.426 389.554 319.9 388.908 320.492 388.447C321.09 387.979 321.741 387.654 322.445 387.47C323.155 387.281 323.854 387.186 324.54 387.186C324.978 387.186 325.481 387.239 326.049 387.346C326.623 387.446 327.177 387.657 327.71 387.976C328.248 388.296 328.695 388.778 329.05 389.423C329.405 390.068 329.583 390.933 329.583 392.016V401H327.488V399.153H327.381C327.239 399.449 327.002 399.766 326.671 400.103C326.339 400.441 325.898 400.728 325.348 400.964C324.798 401.201 324.126 401.32 323.333 401.32ZM323.652 399.438C324.481 399.438 325.179 399.275 325.748 398.949C326.322 398.624 326.754 398.203 327.044 397.689C327.34 397.174 327.488 396.632 327.488 396.064V394.146C327.399 394.253 327.203 394.35 326.902 394.439C326.606 394.522 326.262 394.596 325.872 394.661C325.487 394.72 325.111 394.774 324.744 394.821C324.383 394.862 324.09 394.898 323.865 394.928C323.321 394.999 322.812 395.114 322.338 395.274C321.871 395.428 321.492 395.661 321.202 395.975C320.918 396.283 320.776 396.703 320.776 397.236C320.776 397.964 321.045 398.514 321.584 398.887C322.128 399.254 322.818 399.438 323.652 399.438ZM344.069 387.364L339.027 401H336.896L331.853 387.364H334.126L337.89 398.23H338.032L341.796 387.364H344.069ZM352.064 401.284C350.75 401.284 349.616 400.994 348.663 400.414C347.716 399.828 346.986 399.011 346.471 397.964C345.962 396.91 345.707 395.685 345.707 394.288C345.707 392.892 345.962 391.661 346.471 390.595C346.986 389.524 347.702 388.689 348.619 388.092C349.542 387.488 350.62 387.186 351.851 387.186C352.561 387.186 353.262 387.304 353.955 387.541C354.647 387.778 355.277 388.163 355.846 388.695C356.414 389.222 356.867 389.92 357.204 390.79C357.541 391.661 357.71 392.732 357.71 394.004V394.892H347.199V393.081H355.579C355.579 392.312 355.425 391.625 355.118 391.021C354.816 390.418 354.384 389.941 353.821 389.592C353.265 389.243 352.608 389.068 351.851 389.068C351.016 389.068 350.294 389.275 349.684 389.69C349.081 390.098 348.616 390.631 348.291 391.288C347.965 391.945 347.802 392.649 347.802 393.401V394.608C347.802 395.638 347.98 396.511 348.335 397.227C348.696 397.937 349.196 398.479 349.835 398.852C350.475 399.219 351.217 399.402 352.064 399.402C352.614 399.402 353.111 399.325 353.555 399.171C354.005 399.011 354.393 398.775 354.718 398.461C355.044 398.141 355.295 397.745 355.473 397.271L357.497 397.839C357.284 398.526 356.926 399.13 356.423 399.651C355.92 400.165 355.298 400.568 354.558 400.858C353.819 401.142 352.987 401.284 352.064 401.284ZM360.897 401V387.364H362.921V389.494H363.099C363.383 388.766 363.842 388.201 364.475 387.799C365.108 387.39 365.869 387.186 366.756 387.186C367.656 387.186 368.405 387.39 369.003 387.799C369.606 388.201 370.077 388.766 370.414 389.494H370.556C370.905 388.79 371.429 388.231 372.128 387.816C372.826 387.396 373.663 387.186 374.64 387.186C375.859 387.186 376.857 387.568 377.632 388.331C378.407 389.089 378.795 390.27 378.795 391.874V401H376.7V391.874C376.7 390.867 376.424 390.148 375.874 389.716C375.324 389.284 374.676 389.068 373.93 389.068C372.971 389.068 372.228 389.358 371.701 389.938C371.175 390.512 370.911 391.24 370.911 392.122V401H368.781V391.661C368.781 390.885 368.529 390.261 368.026 389.787C367.523 389.308 366.875 389.068 366.082 389.068C365.537 389.068 365.028 389.213 364.555 389.503C364.087 389.793 363.708 390.196 363.418 390.711C363.134 391.22 362.992 391.808 362.992 392.477V401H360.897ZM386.638 401.32C385.774 401.32 384.99 401.157 384.286 400.831C383.581 400.5 383.022 400.023 382.608 399.402C382.194 398.775 381.986 398.017 381.986 397.129C381.986 396.348 382.14 395.715 382.448 395.229C382.756 394.738 383.167 394.353 383.682 394.075C384.197 393.797 384.765 393.59 385.387 393.454C386.014 393.312 386.644 393.199 387.278 393.116C388.106 393.01 388.778 392.93 389.293 392.877C389.814 392.818 390.193 392.72 390.429 392.584C390.672 392.448 390.793 392.211 390.793 391.874V391.803C390.793 390.927 390.554 390.246 390.074 389.761C389.601 389.275 388.882 389.033 387.917 389.033C386.917 389.033 386.132 389.252 385.564 389.69C384.996 390.128 384.597 390.595 384.366 391.092L382.377 390.382C382.732 389.554 383.206 388.908 383.797 388.447C384.395 387.979 385.046 387.654 385.751 387.47C386.461 387.281 387.159 387.186 387.846 387.186C388.284 387.186 388.787 387.239 389.355 387.346C389.929 387.446 390.483 387.657 391.015 387.976C391.554 388.296 392.001 388.778 392.356 389.423C392.711 390.068 392.888 390.933 392.888 392.016V401H390.793V399.153H390.687C390.545 399.449 390.308 399.766 389.976 400.103C389.645 400.441 389.204 400.728 388.654 400.964C388.103 401.201 387.431 401.32 386.638 401.32ZM386.958 399.438C387.787 399.438 388.485 399.275 389.053 398.949C389.627 398.624 390.059 398.203 390.349 397.689C390.645 397.174 390.793 396.632 390.793 396.064V394.146C390.704 394.253 390.509 394.35 390.207 394.439C389.911 394.522 389.568 394.596 389.177 394.661C388.793 394.72 388.417 394.774 388.05 394.821C387.689 394.862 387.396 394.898 387.171 394.928C386.627 394.999 386.118 395.114 385.644 395.274C385.177 395.428 384.798 395.661 384.508 395.975C384.224 396.283 384.082 396.703 384.082 397.236C384.082 397.964 384.351 398.514 384.889 398.887C385.434 399.254 386.123 399.438 386.958 399.438ZM398.808 392.797V401H396.713V387.364H398.737V389.494H398.914C399.234 388.802 399.719 388.246 400.37 387.825C401.021 387.399 401.862 387.186 402.892 387.186C403.815 387.186 404.623 387.375 405.315 387.754C406.008 388.127 406.546 388.695 406.931 389.459C407.316 390.216 407.508 391.175 407.508 392.335V401H405.413V392.477C405.413 391.406 405.135 390.571 404.578 389.974C404.022 389.37 403.258 389.068 402.288 389.068C401.619 389.068 401.021 389.213 400.494 389.503C399.974 389.793 399.562 390.216 399.26 390.773C398.959 391.329 398.808 392.004 398.808 392.797ZM412.864 401.142C412.426 401.142 412.05 400.985 411.736 400.672C411.422 400.358 411.266 399.982 411.266 399.544C411.266 399.106 411.422 398.73 411.736 398.417C412.05 398.103 412.426 397.946 412.864 397.946C413.302 397.946 413.677 398.103 413.991 398.417C414.305 398.73 414.462 399.106 414.462 399.544C414.462 399.834 414.388 400.1 414.24 400.343C414.098 400.586 413.905 400.781 413.663 400.929C413.426 401.071 413.159 401.142 412.864 401.142ZM423.939 401.284C422.625 401.284 421.491 400.994 420.538 400.414C419.591 399.828 418.861 399.011 418.346 397.964C417.837 396.91 417.582 395.685 417.582 394.288C417.582 392.892 417.837 391.661 418.346 390.595C418.861 389.524 419.577 388.689 420.494 388.092C421.417 387.488 422.495 387.186 423.726 387.186C424.436 387.186 425.137 387.304 425.83 387.541C426.522 387.778 427.152 388.163 427.721 388.695C428.289 389.222 428.742 389.92 429.079 390.79C429.416 391.661 429.585 392.732 429.585 394.004V394.892H419.074V393.081H427.454C427.454 392.312 427.3 391.625 426.993 391.021C426.691 390.418 426.259 389.941 425.696 389.592C425.14 389.243 424.483 389.068 423.726 389.068C422.891 389.068 422.169 389.275 421.559 389.69C420.956 390.098 420.491 390.631 420.166 391.288C419.84 391.945 419.677 392.649 419.677 393.401V394.608C419.677 395.638 419.855 396.511 420.21 397.227C420.571 397.937 421.071 398.479 421.71 398.852C422.35 399.219 423.092 399.402 423.939 399.402C424.489 399.402 424.986 399.325 425.43 399.171C425.88 399.011 426.268 398.775 426.593 398.461C426.919 398.141 427.17 397.745 427.348 397.271L429.372 397.839C429.159 398.526 428.801 399.13 428.298 399.651C427.795 400.165 427.173 400.568 426.433 400.858C425.694 401.142 424.862 401.284 423.939 401.284ZM438.703 387.364V389.139H431.636V387.364H438.703ZM433.695 384.097H435.791V397.094C435.791 397.686 435.876 398.129 436.048 398.425C436.226 398.715 436.45 398.911 436.723 399.011C437.001 399.106 437.294 399.153 437.602 399.153C437.832 399.153 438.022 399.142 438.17 399.118C438.318 399.088 438.436 399.065 438.525 399.047L438.951 400.929C438.809 400.982 438.611 401.036 438.356 401.089C438.102 401.148 437.779 401.178 437.389 401.178C436.797 401.178 436.217 401.05 435.649 400.796C435.086 400.541 434.619 400.154 434.246 399.633C433.879 399.112 433.695 398.455 433.695 397.662V384.097ZM444.242 392.797V401H442.147V382.818H444.242V389.494H444.42C444.739 388.79 445.219 388.231 445.858 387.816C446.503 387.396 447.361 387.186 448.433 387.186C449.362 387.186 450.176 387.373 450.874 387.745C451.572 388.112 452.114 388.678 452.499 389.441C452.889 390.199 453.085 391.163 453.085 392.335V401H450.989V392.477C450.989 391.394 450.708 390.557 450.146 389.965C449.59 389.367 448.817 389.068 447.829 389.068C447.142 389.068 446.527 389.213 445.982 389.503C445.444 389.793 445.018 390.216 444.704 390.773C444.396 391.329 444.242 392.004 444.242 392.797Z" fill="white"/>
<circle cx="272" cy="392" r="25" fill="#D9D9D9"/>
<path d="M58.7322 387.457C58.647 386.597 58.2813 385.93 57.6349 385.454C56.9886 384.978 56.1115 384.74 55.0036 384.74C54.2507 384.74 53.6151 384.847 53.0966 385.06C52.5781 385.266 52.1804 385.553 51.9034 385.923C51.6335 386.292 51.4986 386.711 51.4986 387.18C51.4844 387.57 51.5661 387.911 51.7436 388.202C51.9283 388.494 52.1804 388.746 52.5 388.959C52.8196 389.165 53.1889 389.346 53.608 389.502C54.027 389.651 54.4744 389.779 54.9503 389.886L56.9105 390.354C57.8622 390.567 58.7358 390.852 59.5312 391.207C60.3267 391.562 61.0156 391.999 61.598 392.517C62.1804 393.036 62.6314 393.646 62.951 394.349C63.2777 395.053 63.4446 395.859 63.4517 396.768C63.4446 398.103 63.1037 399.261 62.429 400.241C61.7614 401.214 60.7955 401.97 59.5312 402.51C58.2741 403.043 56.7578 403.309 54.9822 403.309C53.2209 403.309 51.6868 403.039 50.38 402.499C49.0803 401.96 48.0646 401.161 47.3331 400.102C46.6087 399.037 46.2287 397.719 46.1932 396.15H50.657C50.7067 396.881 50.9162 397.492 51.2855 397.982C51.6619 398.465 52.1626 398.831 52.7876 399.08C53.4197 399.321 54.1335 399.442 54.929 399.442C55.7102 399.442 56.3885 399.328 56.9638 399.101C57.5462 398.874 57.9972 398.558 58.3168 398.153C58.6364 397.748 58.7962 397.283 58.7962 396.757C58.7962 396.267 58.6506 395.855 58.3594 395.521C58.0753 395.187 57.6563 394.903 57.1023 394.669C56.5554 394.435 55.8842 394.222 55.0888 394.03L52.7131 393.433C50.8736 392.986 49.4212 392.286 48.3558 391.335C47.2905 390.383 46.7614 389.101 46.7685 387.489C46.7614 386.168 47.1129 385.013 47.8232 384.026C48.5405 383.039 49.5241 382.268 50.7741 381.714C52.0241 381.161 53.4446 380.884 55.0355 380.884C56.6548 380.884 58.0682 381.161 59.2756 381.714C60.4901 382.268 61.4347 383.039 62.1094 384.026C62.7841 385.013 63.1321 386.157 63.1534 387.457H58.7322ZM73.9267 403.32C72.2434 403.32 70.7946 402.979 69.5801 402.297C68.3727 401.608 67.4423 400.635 66.7889 399.378C66.1355 398.114 65.8088 396.619 65.8088 394.893C65.8088 393.21 66.1355 391.732 66.7889 390.461C67.4423 389.19 68.362 388.199 69.5481 387.489C70.7413 386.778 72.1404 386.423 73.7456 386.423C74.8251 386.423 75.8301 386.597 76.7605 386.945C77.698 387.286 78.5147 387.801 79.2108 388.49C79.9139 389.179 80.4608 390.045 80.8514 391.089C81.242 392.126 81.4373 393.341 81.4373 394.733V395.979H67.6199V393.167H77.1653C77.1653 392.513 77.0233 391.935 76.7392 391.43C76.4551 390.926 76.0609 390.532 75.5566 390.248C75.0595 389.957 74.4806 389.811 73.8201 389.811C73.1312 389.811 72.5204 389.971 71.9877 390.29C71.4622 390.603 71.0502 391.026 70.752 391.558C70.4537 392.084 70.301 392.67 70.2939 393.316V395.99C70.2939 396.8 70.443 397.499 70.7413 398.089C71.0467 398.678 71.4764 399.133 72.0304 399.452C72.5843 399.772 73.2413 399.932 74.0012 399.932C74.5055 399.932 74.9672 399.861 75.3862 399.719C75.8052 399.577 76.1639 399.364 76.4622 399.08C76.7605 398.795 76.9877 398.447 77.144 398.036L81.3414 398.312C81.1284 399.321 80.6916 400.202 80.0311 400.955C79.3777 401.7 78.5325 402.283 77.4956 402.702C76.4657 403.114 75.2761 403.32 73.9267 403.32ZM88.9373 381.182V403H84.399V381.182H88.9373ZM97.1112 381.182V403H92.5728V381.182H97.1112ZM108.204 403.32C106.521 403.32 105.072 402.979 103.857 402.297C102.65 401.608 101.72 400.635 101.066 399.378C100.413 398.114 100.086 396.619 100.086 394.893C100.086 393.21 100.413 391.732 101.066 390.461C101.72 389.19 102.639 388.199 103.825 387.489C105.019 386.778 106.418 386.423 108.023 386.423C109.102 386.423 110.107 386.597 111.038 386.945C111.975 387.286 112.792 387.801 113.488 388.49C114.191 389.179 114.738 390.045 115.129 391.089C115.519 392.126 115.715 393.341 115.715 394.733V395.979H101.897V393.167H111.443C111.443 392.513 111.301 391.935 111.017 391.43C110.732 390.926 110.338 390.532 109.834 390.248C109.337 389.957 108.758 389.811 108.097 389.811C107.409 389.811 106.798 389.971 106.265 390.29C105.74 390.603 105.328 391.026 105.029 391.558C104.731 392.084 104.578 392.67 104.571 393.316V395.99C104.571 396.8 104.72 397.499 105.019 398.089C105.324 398.678 105.754 399.133 106.308 399.452C106.862 399.772 107.519 399.932 108.279 399.932C108.783 399.932 109.244 399.861 109.664 399.719C110.083 399.577 110.441 399.364 110.74 399.08C111.038 398.795 111.265 398.447 111.421 398.036L115.619 398.312C115.406 399.321 114.969 400.202 114.308 400.955C113.655 401.7 112.81 402.283 111.773 402.702C110.743 403.114 109.553 403.32 108.204 403.32ZM118.676 403V386.636H123.076V389.491H123.247C123.545 388.476 124.046 387.709 124.749 387.19C125.452 386.665 126.262 386.402 127.178 386.402C127.405 386.402 127.65 386.416 127.913 386.445C128.176 386.473 128.406 386.512 128.605 386.562V390.589C128.392 390.525 128.097 390.468 127.721 390.418C127.345 390.369 127 390.344 126.688 390.344C126.02 390.344 125.423 390.489 124.898 390.781C124.379 391.065 123.968 391.462 123.662 391.974C123.364 392.485 123.215 393.075 123.215 393.742V403H118.676Z" fill="white"/>
<rect x="500" y="45" width="455" height="455" rx="19" fill="#4770BD"/>
</svg>
