<svg width="1000" height="666" viewBox="0 0 1000 666" fill="none" xmlns="http://www.w3.org/2000/svg">
<rect width="1000" height="666" fill="#1E1E1E"/>
<rect width="1000" height="666" fill="#3B3B3B"/>
<rect x="552" y="48" width="400" height="400" rx="30" fill="#4496E7"/>
<rect x="26" y="506" width="433" height="132" rx="66" fill="#242424"/>
<path d="M179.898 589V562.818H186.818V567.438H187.125C187.67 565.903 188.58 564.693 189.852 563.807C191.125 562.92 192.648 562.477 194.42 562.477C196.216 562.477 197.744 562.926 199.006 563.824C200.267 564.71 201.108 565.915 201.528 567.438H201.801C202.335 565.938 203.301 564.739 204.699 563.841C206.108 562.932 207.773 562.477 209.693 562.477C212.136 562.477 214.119 563.256 215.642 564.812C217.176 566.358 217.943 568.551 217.943 571.392V589H210.699V572.824C210.699 571.369 210.313 570.278 209.54 569.551C208.767 568.824 207.801 568.46 206.642 568.46C205.324 568.46 204.295 568.881 203.557 569.722C202.818 570.551 202.449 571.648 202.449 573.011V589H195.409V572.67C195.409 571.386 195.04 570.364 194.301 569.602C193.574 568.841 192.614 568.46 191.42 568.46C190.614 568.46 189.886 568.665 189.239 569.074C188.602 569.472 188.097 570.034 187.722 570.761C187.347 571.477 187.159 572.318 187.159 573.284V589H179.898ZM231.145 589.494C229.474 589.494 227.986 589.205 226.679 588.625C225.372 588.034 224.338 587.165 223.577 586.017C222.827 584.858 222.452 583.415 222.452 581.688C222.452 580.233 222.719 579.011 223.253 578.023C223.787 577.034 224.514 576.239 225.435 575.636C226.355 575.034 227.401 574.58 228.571 574.273C229.753 573.966 230.991 573.75 232.287 573.625C233.81 573.466 235.037 573.318 235.969 573.182C236.901 573.034 237.577 572.818 237.997 572.534C238.418 572.25 238.628 571.83 238.628 571.273V571.17C238.628 570.091 238.287 569.256 237.605 568.665C236.935 568.074 235.98 567.778 234.741 567.778C233.435 567.778 232.395 568.068 231.622 568.648C230.849 569.216 230.338 569.932 230.088 570.795L223.372 570.25C223.713 568.659 224.384 567.284 225.384 566.125C226.384 564.955 227.673 564.057 229.253 563.432C230.844 562.795 232.685 562.477 234.776 562.477C236.23 562.477 237.622 562.648 238.952 562.989C240.293 563.33 241.48 563.858 242.514 564.574C243.56 565.29 244.384 566.21 244.986 567.335C245.588 568.449 245.889 569.784 245.889 571.341V589H239.003V585.369H238.798C238.378 586.188 237.815 586.909 237.111 587.534C236.406 588.148 235.56 588.631 234.571 588.983C233.582 589.324 232.44 589.494 231.145 589.494ZM233.224 584.483C234.293 584.483 235.236 584.273 236.054 583.852C236.872 583.42 237.514 582.841 237.98 582.114C238.446 581.386 238.679 580.562 238.679 579.642V576.864C238.452 577.011 238.139 577.148 237.741 577.273C237.355 577.386 236.918 577.494 236.429 577.597C235.94 577.687 235.452 577.773 234.963 577.852C234.474 577.92 234.031 577.983 233.634 578.04C232.781 578.165 232.037 578.364 231.401 578.636C230.764 578.909 230.27 579.278 229.918 579.744C229.565 580.199 229.389 580.767 229.389 581.449C229.389 582.438 229.747 583.193 230.463 583.716C231.19 584.227 232.111 584.483 233.224 584.483ZM257.591 562.818L262.398 571.972L267.324 562.818H274.773L267.188 575.909L274.977 589H267.562L262.398 579.949L257.318 589H249.818L257.591 575.909L250.091 562.818H257.591ZM279.085 589V562.818H286.347V589H279.085ZM282.733 559.443C281.653 559.443 280.727 559.085 279.955 558.369C279.193 557.642 278.812 556.773 278.812 555.761C278.812 554.761 279.193 553.903 279.955 553.188C280.727 552.46 281.653 552.097 282.733 552.097C283.813 552.097 284.733 552.46 285.494 553.188C286.267 553.903 286.653 554.761 286.653 555.761C286.653 556.773 286.267 557.642 285.494 558.369C284.733 559.085 283.813 559.443 282.733 559.443ZM296.408 589.443C295.283 589.443 294.317 589.045 293.51 588.25C292.714 587.443 292.317 586.477 292.317 585.352C292.317 584.239 292.714 583.284 293.51 582.489C294.317 581.693 295.283 581.295 296.408 581.295C297.499 581.295 298.453 581.693 299.271 582.489C300.089 583.284 300.499 584.239 300.499 585.352C300.499 586.102 300.305 586.79 299.919 587.415C299.544 588.028 299.05 588.523 298.436 588.898C297.822 589.261 297.146 589.443 296.408 589.443ZM318.392 589.511C315.699 589.511 313.381 588.966 311.438 587.875C309.506 586.773 308.017 585.216 306.972 583.205C305.926 581.182 305.403 578.79 305.403 576.028C305.403 573.335 305.926 570.972 306.972 568.938C308.017 566.903 309.489 565.318 311.386 564.182C313.295 563.045 315.534 562.477 318.102 562.477C319.83 562.477 321.438 562.756 322.926 563.312C324.426 563.858 325.733 564.682 326.847 565.784C327.972 566.886 328.847 568.273 329.472 569.943C330.097 571.602 330.409 573.545 330.409 575.773V577.767H308.301V573.267H323.574C323.574 572.222 323.347 571.295 322.892 570.489C322.438 569.682 321.807 569.051 321 568.597C320.205 568.131 319.278 567.898 318.222 567.898C317.119 567.898 316.142 568.153 315.29 568.665C314.449 569.165 313.79 569.841 313.312 570.693C312.835 571.534 312.591 572.472 312.58 573.506V577.784C312.58 579.08 312.818 580.199 313.295 581.142C313.784 582.085 314.472 582.812 315.358 583.324C316.244 583.835 317.295 584.091 318.511 584.091C319.318 584.091 320.057 583.977 320.727 583.75C321.398 583.523 321.972 583.182 322.449 582.727C322.926 582.273 323.29 581.716 323.54 581.057L330.256 581.5C329.915 583.114 329.216 584.523 328.159 585.727C327.114 586.92 325.761 587.852 324.102 588.523C322.455 589.182 320.551 589.511 318.392 589.511ZM349.074 562.818V568.273H333.307V562.818H349.074ZM336.886 556.545H344.148V580.955C344.148 581.625 344.25 582.148 344.455 582.523C344.659 582.886 344.943 583.142 345.307 583.29C345.682 583.437 346.114 583.511 346.602 583.511C346.943 583.511 347.284 583.483 347.625 583.426C347.966 583.358 348.227 583.307 348.409 583.273L349.551 588.676C349.188 588.79 348.676 588.92 348.017 589.068C347.358 589.227 346.557 589.324 345.614 589.358C343.864 589.426 342.33 589.193 341.011 588.659C339.705 588.125 338.688 587.295 337.96 586.17C337.233 585.045 336.875 583.625 336.886 581.909V556.545ZM361.628 573.864V589H354.366V554.091H361.423V567.438H361.73C362.321 565.892 363.276 564.682 364.594 563.807C365.912 562.92 367.565 562.477 369.554 562.477C371.372 562.477 372.957 562.875 374.31 563.67C375.673 564.455 376.73 565.585 377.48 567.062C378.241 568.528 378.616 570.284 378.605 572.33V589H371.344V573.625C371.355 572.011 370.946 570.756 370.116 569.858C369.298 568.96 368.151 568.511 366.673 568.511C365.685 568.511 364.81 568.722 364.048 569.142C363.298 569.562 362.707 570.176 362.276 570.983C361.855 571.778 361.639 572.739 361.628 573.864Z" fill="white"/>
<rect x="47" y="522" width="100" height="100" rx="50" fill="#D9D9D9"/>
<rect x="535" y="506" width="433" height="132" rx="66" fill="#242424"/>
<path d="M688.898 562.818H696.159V590.295C696.159 592.318 695.761 593.955 694.966 595.205C694.17 596.455 693.028 597.369 691.54 597.949C690.063 598.528 688.295 598.818 686.239 598.818C685.989 598.818 685.75 598.813 685.523 598.801C685.284 598.801 685.034 598.795 684.773 598.784V593.108C684.966 593.119 685.136 593.125 685.284 593.125C685.42 593.136 685.568 593.142 685.727 593.142C686.898 593.142 687.716 592.892 688.182 592.392C688.659 591.903 688.898 591.165 688.898 590.176V562.818ZM692.511 559.443C691.443 559.443 690.523 559.085 689.75 558.369C688.977 557.642 688.591 556.773 688.591 555.761C688.591 554.761 688.977 553.903 689.75 553.188C690.523 552.46 691.443 552.097 692.511 552.097C693.602 552.097 694.528 552.46 695.29 553.188C696.063 553.903 696.449 554.761 696.449 555.761C696.449 556.773 696.063 557.642 695.29 558.369C694.528 559.085 693.602 559.443 692.511 559.443ZM709.442 589.494C707.771 589.494 706.283 589.205 704.976 588.625C703.669 588.034 702.635 587.165 701.874 586.017C701.124 584.858 700.749 583.415 700.749 581.688C700.749 580.233 701.016 579.011 701.55 578.023C702.084 577.034 702.811 576.239 703.732 575.636C704.652 575.034 705.697 574.58 706.868 574.273C708.05 573.966 709.288 573.75 710.584 573.625C712.107 573.466 713.334 573.318 714.266 573.182C715.197 573.034 715.874 572.818 716.294 572.534C716.714 572.25 716.925 571.83 716.925 571.273V571.17C716.925 570.091 716.584 569.256 715.902 568.665C715.232 568.074 714.277 567.778 713.038 567.778C711.732 567.778 710.692 568.068 709.919 568.648C709.146 569.216 708.635 569.932 708.385 570.795L701.669 570.25C702.01 568.659 702.68 567.284 703.68 566.125C704.68 564.955 705.97 564.057 707.55 563.432C709.141 562.795 710.982 562.477 713.072 562.477C714.527 562.477 715.919 562.648 717.249 562.989C718.589 563.33 719.777 563.858 720.811 564.574C721.857 565.29 722.68 566.21 723.283 567.335C723.885 568.449 724.186 569.784 724.186 571.341V589H717.3V585.369H717.095C716.675 586.188 716.112 586.909 715.408 587.534C714.703 588.148 713.857 588.631 712.868 588.983C711.879 589.324 710.737 589.494 709.442 589.494ZM711.521 584.483C712.589 584.483 713.533 584.273 714.351 583.852C715.169 583.42 715.811 582.841 716.277 582.114C716.743 581.386 716.976 580.562 716.976 579.642V576.864C716.749 577.011 716.436 577.148 716.038 577.273C715.652 577.386 715.214 577.494 714.726 577.597C714.237 577.687 713.749 577.773 713.26 577.852C712.771 577.92 712.328 577.983 711.93 578.04C711.078 578.165 710.334 578.364 709.697 578.636C709.061 578.909 708.567 579.278 708.214 579.744C707.862 580.199 707.686 580.767 707.686 581.449C707.686 582.438 708.044 583.193 708.76 583.716C709.487 584.227 710.408 584.483 711.521 584.483ZM729.82 589V562.818H736.74V567.438H737.047C737.592 565.903 738.501 564.693 739.774 563.807C741.047 562.92 742.57 562.477 744.342 562.477C746.138 562.477 747.666 562.926 748.928 563.824C750.189 564.71 751.03 565.915 751.45 567.438H751.723C752.257 565.938 753.223 564.739 754.621 563.841C756.03 562.932 757.695 562.477 759.615 562.477C762.058 562.477 764.041 563.256 765.564 564.812C767.098 566.358 767.865 568.551 767.865 571.392V589H760.621V572.824C760.621 571.369 760.234 570.278 759.462 569.551C758.689 568.824 757.723 568.46 756.564 568.46C755.246 568.46 754.217 568.881 753.479 569.722C752.74 570.551 752.371 571.648 752.371 573.011V589H745.331V572.67C745.331 571.386 744.962 570.364 744.223 569.602C743.496 568.841 742.536 568.46 741.342 568.46C740.536 568.46 739.808 568.665 739.161 569.074C738.524 569.472 738.018 570.034 737.643 570.761C737.268 571.477 737.081 572.318 737.081 573.284V589H729.82ZM785.533 589.511C782.839 589.511 780.521 588.966 778.578 587.875C776.646 586.773 775.158 585.216 774.112 583.205C773.067 581.182 772.544 578.79 772.544 576.028C772.544 573.335 773.067 570.972 774.112 568.938C775.158 566.903 776.629 565.318 778.527 564.182C780.436 563.045 782.675 562.477 785.243 562.477C786.97 562.477 788.578 562.756 790.067 563.312C791.567 563.858 792.874 564.682 793.987 565.784C795.112 566.886 795.987 568.273 796.612 569.943C797.237 571.602 797.55 573.545 797.55 575.773V577.767H775.442V573.267H790.714C790.714 572.222 790.487 571.295 790.033 570.489C789.578 569.682 788.947 569.051 788.141 568.597C787.345 568.131 786.419 567.898 785.362 567.898C784.26 567.898 783.283 568.153 782.43 568.665C781.589 569.165 780.93 569.841 780.453 570.693C779.976 571.534 779.732 572.472 779.72 573.506V577.784C779.72 579.08 779.959 580.199 780.436 581.142C780.925 582.085 781.612 582.812 782.499 583.324C783.385 583.835 784.436 584.091 785.652 584.091C786.459 584.091 787.197 583.977 787.868 583.75C788.538 583.523 789.112 583.182 789.589 582.727C790.067 582.273 790.43 581.716 790.68 581.057L797.396 581.5C797.055 583.114 796.357 584.523 795.3 585.727C794.254 586.92 792.902 587.852 791.243 588.523C789.595 589.182 787.692 589.511 785.533 589.511ZM824.072 570.284L817.425 570.693C817.311 570.125 817.067 569.614 816.692 569.159C816.317 568.693 815.822 568.324 815.209 568.051C814.607 567.767 813.885 567.625 813.044 567.625C811.919 567.625 810.97 567.864 810.197 568.341C809.425 568.807 809.038 569.432 809.038 570.216C809.038 570.841 809.288 571.369 809.788 571.801C810.288 572.233 811.146 572.58 812.362 572.841L817.101 573.795C819.646 574.318 821.544 575.159 822.794 576.318C824.044 577.477 824.669 579 824.669 580.886C824.669 582.602 824.163 584.108 823.152 585.403C822.152 586.699 820.777 587.71 819.027 588.438C817.288 589.153 815.283 589.511 813.01 589.511C809.544 589.511 806.783 588.79 804.726 587.347C802.68 585.892 801.482 583.915 801.129 581.415L808.271 581.04C808.487 582.097 809.01 582.903 809.839 583.46C810.669 584.006 811.732 584.278 813.027 584.278C814.3 584.278 815.322 584.034 816.095 583.545C816.879 583.045 817.277 582.403 817.288 581.619C817.277 580.96 816.999 580.42 816.453 580C815.908 579.568 815.067 579.239 813.93 579.011L809.396 578.108C806.839 577.597 804.936 576.71 803.686 575.449C802.447 574.187 801.828 572.58 801.828 570.625C801.828 568.943 802.283 567.494 803.192 566.278C804.112 565.062 805.402 564.125 807.061 563.466C808.732 562.807 810.686 562.477 812.925 562.477C816.232 562.477 818.834 563.176 820.732 564.574C822.641 565.972 823.754 567.875 824.072 570.284ZM833.486 589.443C832.361 589.443 831.395 589.045 830.588 588.25C829.793 587.443 829.395 586.477 829.395 585.352C829.395 584.239 829.793 583.284 830.588 582.489C831.395 581.693 832.361 581.295 833.486 581.295C834.577 581.295 835.531 581.693 836.349 582.489C837.168 583.284 837.577 584.239 837.577 585.352C837.577 586.102 837.384 586.79 836.997 587.415C836.622 588.028 836.128 588.523 835.514 588.898C834.901 589.261 834.224 589.443 833.486 589.443ZM855.47 589.511C852.777 589.511 850.459 588.966 848.516 587.875C846.584 586.773 845.095 585.216 844.05 583.205C843.004 581.182 842.482 578.79 842.482 576.028C842.482 573.335 843.004 570.972 844.05 568.938C845.095 566.903 846.567 565.318 848.464 564.182C850.374 563.045 852.612 562.477 855.18 562.477C856.908 562.477 858.516 562.756 860.004 563.312C861.504 563.858 862.811 564.682 863.925 565.784C865.05 566.886 865.925 568.273 866.55 569.943C867.175 571.602 867.487 573.545 867.487 575.773V577.767H845.379V573.267H860.652C860.652 572.222 860.425 571.295 859.97 570.489C859.516 569.682 858.885 569.051 858.078 568.597C857.283 568.131 856.357 567.898 855.3 567.898C854.197 567.898 853.22 568.153 852.368 568.665C851.527 569.165 850.868 569.841 850.391 570.693C849.913 571.534 849.669 572.472 849.658 573.506V577.784C849.658 579.08 849.896 580.199 850.374 581.142C850.862 582.085 851.55 582.812 852.436 583.324C853.322 583.835 854.374 584.091 855.589 584.091C856.396 584.091 857.135 583.977 857.805 583.75C858.476 583.523 859.05 583.182 859.527 582.727C860.004 582.273 860.368 581.716 860.618 581.057L867.334 581.5C866.993 583.114 866.294 584.523 865.237 585.727C864.192 586.92 862.839 587.852 861.18 588.523C859.533 589.182 857.629 589.511 855.47 589.511ZM886.152 562.818V568.273H870.385V562.818H886.152ZM873.964 556.545H881.226V580.955C881.226 581.625 881.328 582.148 881.533 582.523C881.737 582.886 882.021 583.142 882.385 583.29C882.76 583.437 883.192 583.511 883.68 583.511C884.021 583.511 884.362 583.483 884.703 583.426C885.044 583.358 885.305 583.307 885.487 583.273L886.629 588.676C886.266 588.79 885.754 588.92 885.095 589.068C884.436 589.227 883.635 589.324 882.692 589.358C880.942 589.426 879.408 589.193 878.089 588.659C876.783 588.125 875.766 587.295 875.038 586.17C874.311 585.045 873.953 583.625 873.964 581.909V556.545ZM898.706 573.864V589H891.445V554.091H898.501V567.438H898.808C899.399 565.892 900.354 564.682 901.672 563.807C902.99 562.92 904.643 562.477 906.632 562.477C908.45 562.477 910.036 562.875 911.388 563.67C912.751 564.455 913.808 565.585 914.558 567.062C915.32 568.528 915.695 570.284 915.683 572.33V589H908.422V573.625C908.433 572.011 908.024 570.756 907.195 569.858C906.376 568.96 905.229 568.511 903.751 568.511C902.763 568.511 901.888 568.722 901.126 569.142C900.376 569.562 899.786 570.176 899.354 570.983C898.933 571.778 898.717 572.739 898.706 573.864Z" fill="white"/>
<rect x="555" y="522" width="100" height="100" rx="50" fill="#D9D9D9"/>
<path d="M186.545 173.273C180.121 173.273 174.394 172.091 169.364 169.727C164.364 167.364 160.394 164.106 157.455 159.955C154.515 155.803 152.985 151.045 152.864 145.682H171.955C172.167 149.288 173.682 152.212 176.5 154.455C179.318 156.697 182.667 157.818 186.545 157.818C189.636 157.818 192.364 157.136 194.727 155.773C197.121 154.379 198.985 152.455 200.318 150C201.682 147.515 202.364 144.667 202.364 141.455C202.364 138.182 201.667 135.303 200.273 132.818C198.909 130.333 197.015 128.394 194.591 127C192.167 125.606 189.394 124.894 186.273 124.864C183.545 124.864 180.894 125.424 178.318 126.545C175.773 127.667 173.788 129.197 172.364 131.136L154.864 128L159.273 78.9091H216.182V95H175.5L173.091 118.318H173.636C175.273 116.015 177.742 114.106 181.045 112.591C184.348 111.076 188.045 110.318 192.136 110.318C197.742 110.318 202.742 111.636 207.136 114.273C211.53 116.909 215 120.53 217.545 125.136C220.091 129.712 221.348 134.985 221.318 140.955C221.348 147.227 219.894 152.803 216.955 157.682C214.045 162.53 209.97 166.348 204.727 169.136C199.515 171.894 193.455 173.273 186.545 173.273ZM243.545 173.182C240.545 173.182 237.97 172.121 235.818 170C233.697 167.848 232.636 165.273 232.636 162.273C232.636 159.303 233.697 156.758 235.818 154.636C237.97 152.515 240.545 151.455 243.545 151.455C246.455 151.455 249 152.515 251.182 154.636C253.364 156.758 254.455 159.303 254.455 162.273C254.455 164.273 253.939 166.106 252.909 167.773C251.909 169.409 250.591 170.727 248.955 171.727C247.318 172.697 245.515 173.182 243.545 173.182ZM303.42 173.273C296.996 173.273 291.269 172.091 286.239 169.727C281.239 167.364 277.269 164.106 274.33 159.955C271.39 155.803 269.86 151.045 269.739 145.682H288.83C289.042 149.288 290.557 152.212 293.375 154.455C296.193 156.697 299.542 157.818 303.42 157.818C306.511 157.818 309.239 157.136 311.602 155.773C313.996 154.379 315.86 152.455 317.193 150C318.557 147.515 319.239 144.667 319.239 141.455C319.239 138.182 318.542 135.303 317.148 132.818C315.784 130.333 313.89 128.394 311.466 127C309.042 125.606 306.269 124.894 303.148 124.864C300.42 124.864 297.769 125.424 295.193 126.545C292.648 127.667 290.663 129.197 289.239 131.136L271.739 128L276.148 78.9091H333.057V95H292.375L289.966 118.318H290.511C292.148 116.015 294.617 114.106 297.92 112.591C301.223 111.076 304.92 110.318 309.011 110.318C314.617 110.318 319.617 111.636 324.011 114.273C328.405 116.909 331.875 120.53 334.42 125.136C336.966 129.712 338.223 134.985 338.193 140.955C338.223 147.227 336.769 152.803 333.83 157.682C330.92 162.53 326.845 166.348 321.602 169.136C316.39 171.894 310.33 173.273 303.42 173.273ZM392.42 78.9091V172H372.739V97.5909H372.193L350.875 110.955V93.5L373.92 78.9091H392.42Z" fill="white"/>
<path d="M231.227 239V204.091H252.295V207.841H235.455V219.636H251.205V223.386H235.455V235.25H252.568V239H231.227ZM258.006 207.841V204.091H284.188V207.841H273.21V239H268.983V207.841H258.006ZM290.712 239V204.091H294.939V219.636H313.553V204.091H317.78V239H313.553V223.386H294.939V239H290.712Z" fill="white"/>
<path d="M253.136 401.091H257.364V424.205C257.364 426.591 256.801 428.722 255.676 430.597C254.563 432.46 252.989 433.932 250.955 435.011C248.92 436.08 246.534 436.614 243.795 436.614C241.057 436.614 238.67 436.08 236.636 435.011C234.602 433.932 233.023 432.46 231.898 430.597C230.784 428.722 230.227 426.591 230.227 424.205V401.091H234.455V423.864C234.455 425.568 234.83 427.085 235.58 428.415C236.33 429.733 237.398 430.773 238.784 431.534C240.182 432.284 241.852 432.659 243.795 432.659C245.739 432.659 247.409 432.284 248.807 431.534C250.205 430.773 251.273 429.733 252.011 428.415C252.761 427.085 253.136 425.568 253.136 423.864V401.091ZM284.896 409.818C284.692 408.091 283.862 406.75 282.408 405.795C280.953 404.841 279.169 404.364 277.055 404.364C275.51 404.364 274.158 404.614 272.999 405.114C271.851 405.614 270.953 406.301 270.305 407.176C269.669 408.051 269.351 409.045 269.351 410.159C269.351 411.091 269.572 411.892 270.016 412.562C270.47 413.222 271.05 413.773 271.754 414.216C272.459 414.648 273.197 415.006 273.97 415.29C274.743 415.562 275.453 415.784 276.101 415.955L279.646 416.909C280.555 417.148 281.567 417.477 282.68 417.898C283.805 418.318 284.879 418.892 285.902 419.619C286.936 420.335 287.788 421.256 288.459 422.381C289.129 423.506 289.464 424.886 289.464 426.523C289.464 428.409 288.97 430.114 287.982 431.636C287.004 433.159 285.572 434.369 283.686 435.267C281.811 436.165 279.533 436.614 276.851 436.614C274.351 436.614 272.186 436.21 270.357 435.403C268.538 434.597 267.107 433.472 266.061 432.028C265.027 430.585 264.442 428.909 264.305 427H268.669C268.783 428.318 269.226 429.409 269.999 430.273C270.783 431.125 271.771 431.761 272.964 432.182C274.169 432.591 275.464 432.795 276.851 432.795C278.464 432.795 279.913 432.534 281.197 432.011C282.482 431.477 283.499 430.739 284.249 429.795C284.999 428.841 285.374 427.727 285.374 426.455C285.374 425.295 285.05 424.352 284.402 423.625C283.754 422.898 282.902 422.307 281.845 421.852C280.788 421.398 279.646 421 278.419 420.659L274.124 419.432C271.396 418.648 269.237 417.528 267.646 416.074C266.055 414.619 265.26 412.716 265.26 410.364C265.26 408.409 265.788 406.705 266.845 405.25C267.913 403.784 269.345 402.648 271.141 401.841C272.947 401.023 274.964 400.614 277.192 400.614C279.442 400.614 281.442 401.017 283.192 401.824C284.942 402.619 286.328 403.71 287.351 405.097C288.385 406.483 288.93 408.057 288.987 409.818H284.896ZM307.188 436H296.415V401.091H307.665C311.051 401.091 313.949 401.79 316.358 403.188C318.767 404.574 320.614 406.568 321.898 409.17C323.182 411.761 323.824 414.864 323.824 418.477C323.824 422.114 323.176 425.244 321.881 427.869C320.585 430.483 318.699 432.494 316.222 433.903C313.744 435.301 310.733 436 307.188 436ZM300.642 432.25H306.915C309.801 432.25 312.193 431.693 314.091 430.58C315.989 429.466 317.403 427.881 318.335 425.824C319.267 423.767 319.733 421.318 319.733 418.477C319.733 415.659 319.273 413.233 318.352 411.199C317.432 409.153 316.057 407.585 314.227 406.494C312.398 405.392 310.119 404.841 307.392 404.841H300.642V432.25Z" fill="white"/>
<path d="M118.409 368.818V310.636H122.136V368.818H118.409ZM128.295 329.841C128.114 328.008 127.333 326.583 125.955 325.568C124.576 324.553 122.705 324.045 120.341 324.045C118.735 324.045 117.379 324.273 116.273 324.727C115.167 325.167 114.318 325.78 113.727 326.568C113.152 327.356 112.864 328.25 112.864 329.25C112.833 330.083 113.008 330.811 113.386 331.432C113.78 332.053 114.318 332.591 115 333.045C115.682 333.485 116.47 333.871 117.364 334.205C118.258 334.523 119.212 334.795 120.227 335.023L124.409 336.023C126.439 336.477 128.303 337.083 130 337.841C131.697 338.598 133.167 339.53 134.409 340.636C135.652 341.742 136.614 343.045 137.295 344.545C137.992 346.045 138.348 347.765 138.364 349.705C138.348 352.553 137.621 355.023 136.182 357.114C134.758 359.189 132.697 360.803 130 361.955C127.318 363.091 124.083 363.659 120.295 363.659C116.538 363.659 113.265 363.083 110.477 361.932C107.705 360.78 105.538 359.076 103.977 356.818C102.432 354.545 101.621 351.735 101.545 348.386H111.068C111.174 349.947 111.621 351.25 112.409 352.295C113.212 353.326 114.28 354.106 115.614 354.636C116.962 355.152 118.485 355.409 120.182 355.409C121.848 355.409 123.295 355.167 124.523 354.682C125.765 354.197 126.727 353.523 127.409 352.659C128.091 351.795 128.432 350.803 128.432 349.682C128.432 348.636 128.121 347.758 127.5 347.045C126.894 346.333 126 345.727 124.818 345.227C123.652 344.727 122.22 344.273 120.523 343.864L115.455 342.591C111.53 341.636 108.432 340.144 106.159 338.114C103.886 336.083 102.758 333.348 102.773 329.909C102.758 327.091 103.508 324.629 105.023 322.523C106.553 320.417 108.652 318.773 111.318 317.591C113.985 316.409 117.015 315.818 120.409 315.818C123.864 315.818 126.879 316.409 129.455 317.591C132.045 318.773 134.061 320.417 135.5 322.523C136.939 324.629 137.682 327.068 137.727 329.841H128.295ZM144.71 363V355.909L161.278 340.568C162.688 339.205 163.869 337.977 164.824 336.886C165.794 335.795 166.528 334.727 167.028 333.682C167.528 332.621 167.778 331.477 167.778 330.25C167.778 328.886 167.468 327.712 166.847 326.727C166.225 325.727 165.377 324.962 164.301 324.432C163.225 323.886 162.006 323.614 160.642 323.614C159.218 323.614 157.975 323.902 156.915 324.477C155.854 325.053 155.036 325.879 154.46 326.955C153.884 328.03 153.597 329.311 153.597 330.795H144.256C144.256 327.75 144.945 325.106 146.324 322.864C147.703 320.621 149.634 318.886 152.119 317.659C154.604 316.432 157.468 315.818 160.71 315.818C164.044 315.818 166.945 316.409 169.415 317.591C171.9 318.758 173.831 320.379 175.21 322.455C176.589 324.53 177.278 326.909 177.278 329.591C177.278 331.348 176.93 333.083 176.233 334.795C175.551 336.508 174.331 338.409 172.574 340.5C170.816 342.576 168.339 345.068 165.142 347.977L158.347 354.636V354.955H177.892V363H144.71ZM185.023 363V355.909L201.591 340.568C203 339.205 204.182 337.977 205.136 336.886C206.106 335.795 206.841 334.727 207.341 333.682C207.841 332.621 208.091 331.477 208.091 330.25C208.091 328.886 207.78 327.712 207.159 326.727C206.538 325.727 205.689 324.962 204.614 324.432C203.538 323.886 202.318 323.614 200.955 323.614C199.53 323.614 198.288 323.902 197.227 324.477C196.167 325.053 195.348 325.879 194.773 326.955C194.197 328.03 193.909 329.311 193.909 330.795H184.568C184.568 327.75 185.258 325.106 186.636 322.864C188.015 320.621 189.947 318.886 192.432 317.659C194.917 316.432 197.78 315.818 201.023 315.818C204.356 315.818 207.258 316.409 209.727 317.591C212.212 318.758 214.144 320.379 215.523 322.455C216.902 324.53 217.591 326.909 217.591 329.591C217.591 331.348 217.242 333.083 216.545 334.795C215.864 336.508 214.644 338.409 212.886 340.5C211.129 342.576 208.652 345.068 205.455 347.977L198.659 354.636V354.955H218.205V363H185.023ZM235.949 356.636L235.699 359.136C235.502 361.136 235.123 363.129 234.562 365.114C234.017 367.114 233.441 368.924 232.835 370.545C232.244 372.167 231.767 373.439 231.403 374.364H225.131C225.358 373.47 225.669 372.22 226.062 370.614C226.456 369.023 226.828 367.235 227.176 365.25C227.525 363.265 227.744 361.242 227.835 359.182L227.949 356.636H235.949ZM261.335 363.636C258.123 363.636 255.259 363.045 252.744 361.864C250.244 360.682 248.259 359.053 246.79 356.977C245.32 354.902 244.555 352.523 244.494 349.841H254.04C254.146 351.644 254.903 353.106 256.312 354.227C257.722 355.348 259.396 355.909 261.335 355.909C262.881 355.909 264.244 355.568 265.426 354.886C266.623 354.189 267.555 353.227 268.222 352C268.903 350.758 269.244 349.333 269.244 347.727C269.244 346.091 268.896 344.652 268.199 343.409C267.517 342.167 266.57 341.197 265.358 340.5C264.146 339.803 262.759 339.447 261.199 339.432C259.835 339.432 258.509 339.712 257.222 340.273C255.949 340.833 254.956 341.598 254.244 342.568L245.494 341L247.699 316.455H276.153V324.5H255.812L254.608 336.159H254.881C255.699 335.008 256.934 334.053 258.585 333.295C260.237 332.538 262.085 332.159 264.131 332.159C266.934 332.159 269.434 332.818 271.631 334.136C273.828 335.455 275.562 337.265 276.835 339.568C278.108 341.856 278.737 344.492 278.722 347.477C278.737 350.614 278.009 353.402 276.54 355.841C275.085 358.265 273.047 360.174 270.426 361.568C267.82 362.947 264.79 363.636 261.335 363.636ZM303.449 363.636C301.055 363.621 298.744 363.22 296.517 362.432C294.305 361.644 292.32 360.364 290.562 358.591C288.805 356.818 287.411 354.47 286.381 351.545C285.366 348.621 284.858 345.03 284.858 340.773C284.873 336.864 285.32 333.371 286.199 330.295C287.093 327.205 288.366 324.583 290.017 322.432C291.684 320.28 293.676 318.644 295.994 317.523C298.313 316.386 300.911 315.818 303.79 315.818C306.896 315.818 309.638 316.424 312.017 317.636C314.396 318.833 316.305 320.462 317.744 322.523C319.199 324.583 320.078 326.894 320.381 329.455H310.676C310.297 327.833 309.502 326.561 308.29 325.636C307.078 324.712 305.578 324.25 303.79 324.25C300.759 324.25 298.456 325.568 296.881 328.205C295.32 330.841 294.525 334.424 294.494 338.955H294.812C295.509 337.576 296.449 336.402 297.631 335.432C298.828 334.447 300.184 333.697 301.699 333.182C303.229 332.652 304.843 332.386 306.54 332.386C309.297 332.386 311.752 333.038 313.903 334.341C316.055 335.629 317.752 337.402 318.994 339.659C320.237 341.917 320.858 344.5 320.858 347.409C320.858 350.561 320.123 353.364 318.653 355.818C317.199 358.273 315.161 360.197 312.54 361.591C309.934 362.97 306.903 363.652 303.449 363.636ZM303.403 355.909C304.919 355.909 306.275 355.545 307.472 354.818C308.669 354.091 309.608 353.106 310.29 351.864C310.972 350.621 311.312 349.227 311.312 347.682C311.312 346.136 310.972 344.75 310.29 343.523C309.623 342.295 308.699 341.318 307.517 340.591C306.335 339.864 304.987 339.5 303.472 339.5C302.335 339.5 301.282 339.712 300.312 340.136C299.358 340.561 298.517 341.152 297.79 341.909C297.078 342.667 296.517 343.545 296.108 344.545C295.699 345.53 295.494 346.583 295.494 347.705C295.494 349.205 295.835 350.576 296.517 351.818C297.214 353.061 298.153 354.053 299.335 354.795C300.532 355.538 301.888 355.909 303.403 355.909ZM346.085 364.023C342.176 364.008 338.813 363.045 335.994 361.136C333.191 359.227 331.032 356.462 329.517 352.841C328.017 349.22 327.275 344.864 327.29 339.773C327.29 334.697 328.04 330.371 329.54 326.795C331.055 323.22 333.214 320.5 336.017 318.636C338.835 316.758 342.191 315.818 346.085 315.818C349.979 315.818 353.328 316.758 356.131 318.636C358.949 320.515 361.116 323.242 362.631 326.818C364.146 330.379 364.896 334.697 364.881 339.773C364.881 344.879 364.123 349.242 362.608 352.864C361.108 356.485 358.956 359.25 356.153 361.159C353.35 363.068 349.994 364.023 346.085 364.023ZM346.085 355.864C348.752 355.864 350.881 354.523 352.472 351.841C354.063 349.159 354.85 345.136 354.835 339.773C354.835 336.242 354.472 333.303 353.744 330.955C353.032 328.606 352.017 326.841 350.699 325.659C349.396 324.477 347.858 323.886 346.085 323.886C343.434 323.886 341.313 325.212 339.722 327.864C338.131 330.515 337.328 334.485 337.312 339.773C337.312 343.348 337.669 346.333 338.381 348.727C339.108 351.106 340.131 352.894 341.449 354.091C342.767 355.273 344.312 355.864 346.085 355.864ZM375.773 363.591C374.273 363.591 372.985 363.061 371.909 362C370.848 360.924 370.318 359.636 370.318 358.136C370.318 356.652 370.848 355.379 371.909 354.318C372.985 353.258 374.273 352.727 375.773 352.727C377.227 352.727 378.5 353.258 379.591 354.318C380.682 355.379 381.227 356.652 381.227 358.136C381.227 359.136 380.97 360.053 380.455 360.886C379.955 361.705 379.295 362.364 378.477 362.864C377.659 363.348 376.758 363.591 375.773 363.591ZM405.46 364.023C401.551 364.008 398.188 363.045 395.369 361.136C392.566 359.227 390.407 356.462 388.892 352.841C387.392 349.22 386.65 344.864 386.665 339.773C386.665 334.697 387.415 330.371 388.915 326.795C390.43 323.22 392.589 320.5 395.392 318.636C398.21 316.758 401.566 315.818 405.46 315.818C409.354 315.818 412.703 316.758 415.506 318.636C418.324 320.515 420.491 323.242 422.006 326.818C423.521 330.379 424.271 334.697 424.256 339.773C424.256 344.879 423.498 349.242 421.983 352.864C420.483 356.485 418.331 359.25 415.528 361.159C412.725 363.068 409.369 364.023 405.46 364.023ZM405.46 355.864C408.127 355.864 410.256 354.523 411.847 351.841C413.438 349.159 414.225 345.136 414.21 339.773C414.21 336.242 413.847 333.303 413.119 330.955C412.407 328.606 411.392 326.841 410.074 325.659C408.771 324.477 407.233 323.886 405.46 323.886C402.809 323.886 400.688 325.212 399.097 327.864C397.506 330.515 396.703 334.485 396.688 339.773C396.688 343.348 397.044 346.333 397.756 348.727C398.483 351.106 399.506 352.894 400.824 354.091C402.142 355.273 403.688 355.864 405.46 355.864ZM451.523 316.455V363H441.682V325.795H441.409L430.75 332.477V323.75L442.273 316.455H451.523Z" fill="white"/>
<path d="M527.475 574.475C528.842 573.108 528.842 570.892 527.475 569.525L505.201 547.251C503.834 545.884 501.618 545.884 500.251 547.251C498.884 548.618 498.884 550.834 500.251 552.201L520.05 572L500.251 591.799C498.884 593.166 498.884 595.382 500.251 596.749C501.618 598.116 503.834 598.116 505.201 596.749L527.475 574.475ZM469 572V575.5H525V572V568.5H469V572Z" fill="white"/>
<path d="M615.159 393.864V409H607.898V382.818H614.818V387.438H615.125C615.705 385.915 616.676 384.71 618.04 383.824C619.403 382.926 621.057 382.477 623 382.477C624.818 382.477 626.403 382.875 627.756 383.67C629.108 384.466 630.159 385.602 630.909 387.08C631.659 388.545 632.034 390.295 632.034 392.33V409H624.773V393.625C624.784 392.023 624.375 390.773 623.545 389.875C622.716 388.966 621.574 388.511 620.119 388.511C619.142 388.511 618.278 388.722 617.528 389.142C616.79 389.562 616.21 390.176 615.79 390.983C615.381 391.778 615.17 392.739 615.159 393.864ZM645.223 409.494C643.553 409.494 642.064 409.205 640.757 408.625C639.45 408.034 638.416 407.165 637.655 406.017C636.905 404.858 636.53 403.415 636.53 401.688C636.53 400.233 636.797 399.011 637.331 398.023C637.865 397.034 638.592 396.239 639.513 395.636C640.433 395.034 641.479 394.58 642.649 394.273C643.831 393.966 645.07 393.75 646.365 393.625C647.888 393.466 649.115 393.318 650.047 393.182C650.979 393.034 651.655 392.818 652.075 392.534C652.496 392.25 652.706 391.83 652.706 391.273V391.17C652.706 390.091 652.365 389.256 651.683 388.665C651.013 388.074 650.058 387.778 648.82 387.778C647.513 387.778 646.473 388.068 645.7 388.648C644.928 389.216 644.416 389.932 644.166 390.795L637.45 390.25C637.791 388.659 638.462 387.284 639.462 386.125C640.462 384.955 641.751 384.057 643.331 383.432C644.922 382.795 646.763 382.477 648.854 382.477C650.308 382.477 651.7 382.648 653.03 382.989C654.371 383.33 655.558 383.858 656.592 384.574C657.638 385.29 658.462 386.21 659.064 387.335C659.666 388.449 659.967 389.784 659.967 391.341V409H653.081V405.369H652.876C652.456 406.188 651.893 406.909 651.189 407.534C650.484 408.148 649.638 408.631 648.649 408.983C647.661 409.324 646.518 409.494 645.223 409.494ZM647.303 404.483C648.371 404.483 649.314 404.273 650.132 403.852C650.95 403.42 651.592 402.841 652.058 402.114C652.524 401.386 652.757 400.562 652.757 399.642V396.864C652.53 397.011 652.217 397.148 651.82 397.273C651.433 397.386 650.996 397.494 650.507 397.597C650.018 397.687 649.53 397.773 649.041 397.852C648.553 397.92 648.109 397.983 647.712 398.04C646.859 398.165 646.115 398.364 645.479 398.636C644.842 398.909 644.348 399.278 643.996 399.744C643.643 400.199 643.467 400.767 643.467 401.449C643.467 402.438 643.825 403.193 644.541 403.716C645.268 404.227 646.189 404.483 647.303 404.483ZM665.601 409V382.818H672.521V387.438H672.828C673.374 385.903 674.283 384.693 675.555 383.807C676.828 382.92 678.351 382.477 680.124 382.477C681.919 382.477 683.447 382.926 684.709 383.824C685.97 384.71 686.811 385.915 687.232 387.438H687.504C688.038 385.938 689.004 384.739 690.402 383.841C691.811 382.932 693.476 382.477 695.396 382.477C697.839 382.477 699.822 383.256 701.345 384.812C702.879 386.358 703.646 388.551 703.646 391.392V409H696.402V392.824C696.402 391.369 696.016 390.278 695.243 389.551C694.47 388.824 693.504 388.46 692.345 388.46C691.027 388.46 689.999 388.881 689.26 389.722C688.521 390.551 688.152 391.648 688.152 393.011V409H681.112V392.67C681.112 391.386 680.743 390.364 680.004 389.602C679.277 388.841 678.317 388.46 677.124 388.46C676.317 388.46 675.589 388.665 674.942 389.074C674.305 389.472 673.8 390.034 673.425 390.761C673.05 391.477 672.862 392.318 672.862 393.284V409H665.601ZM721.314 409.511C718.621 409.511 716.303 408.966 714.359 407.875C712.428 406.773 710.939 405.216 709.893 403.205C708.848 401.182 708.325 398.79 708.325 396.028C708.325 393.335 708.848 390.972 709.893 388.938C710.939 386.903 712.411 385.318 714.308 384.182C716.217 383.045 718.456 382.477 721.024 382.477C722.751 382.477 724.359 382.756 725.848 383.312C727.348 383.858 728.655 384.682 729.768 385.784C730.893 386.886 731.768 388.273 732.393 389.943C733.018 391.602 733.331 393.545 733.331 395.773V397.767H711.223V393.267H726.496C726.496 392.222 726.268 391.295 725.814 390.489C725.359 389.682 724.729 389.051 723.922 388.597C723.126 388.131 722.2 387.898 721.143 387.898C720.041 387.898 719.064 388.153 718.212 388.665C717.371 389.165 716.712 389.841 716.234 390.693C715.757 391.534 715.513 392.472 715.501 393.506V397.784C715.501 399.08 715.74 400.199 716.217 401.142C716.706 402.085 717.393 402.812 718.28 403.324C719.166 403.835 720.217 404.091 721.433 404.091C722.24 404.091 722.979 403.977 723.649 403.75C724.32 403.523 724.893 403.182 725.371 402.727C725.848 402.273 726.212 401.716 726.462 401.057L733.178 401.5C732.837 403.114 732.138 404.523 731.081 405.727C730.036 406.92 728.683 407.852 727.024 408.523C725.376 409.182 723.473 409.511 721.314 409.511ZM742.314 409.443C741.189 409.443 740.223 409.045 739.416 408.25C738.621 407.443 738.223 406.477 738.223 405.352C738.223 404.239 738.621 403.284 739.416 402.489C740.223 401.693 741.189 401.295 742.314 401.295C743.405 401.295 744.359 401.693 745.178 402.489C745.996 403.284 746.405 404.239 746.405 405.352C746.405 406.102 746.212 406.79 745.825 407.415C745.45 408.028 744.956 408.523 744.342 408.898C743.729 409.261 743.053 409.443 742.314 409.443ZM764.298 409.511C761.605 409.511 759.287 408.966 757.344 407.875C755.412 406.773 753.923 405.216 752.878 403.205C751.832 401.182 751.31 398.79 751.31 396.028C751.31 393.335 751.832 390.972 752.878 388.938C753.923 386.903 755.395 385.318 757.293 384.182C759.202 383.045 761.44 382.477 764.009 382.477C765.736 382.477 767.344 382.756 768.832 383.312C770.332 383.858 771.639 384.682 772.753 385.784C773.878 386.886 774.753 388.273 775.378 389.943C776.003 391.602 776.315 393.545 776.315 395.773V397.767H754.207V393.267H769.48C769.48 392.222 769.253 391.295 768.798 390.489C768.344 389.682 767.713 389.051 766.906 388.597C766.111 388.131 765.185 387.898 764.128 387.898C763.026 387.898 762.048 388.153 761.196 388.665C760.355 389.165 759.696 389.841 759.219 390.693C758.741 391.534 758.497 392.472 758.486 393.506V397.784C758.486 399.08 758.724 400.199 759.202 401.142C759.69 402.085 760.378 402.812 761.264 403.324C762.151 403.835 763.202 404.091 764.418 404.091C765.224 404.091 765.963 403.977 766.634 403.75C767.304 403.523 767.878 403.182 768.355 402.727C768.832 402.273 769.196 401.716 769.446 401.057L776.162 401.5C775.821 403.114 775.122 404.523 774.065 405.727C773.02 406.92 771.668 407.852 770.009 408.523C768.361 409.182 766.457 409.511 764.298 409.511ZM794.98 382.818V388.273H779.213V382.818H794.98ZM782.793 376.545H790.054V400.955C790.054 401.625 790.156 402.148 790.361 402.523C790.565 402.886 790.849 403.142 791.213 403.29C791.588 403.437 792.02 403.511 792.509 403.511C792.849 403.511 793.19 403.483 793.531 403.426C793.872 403.358 794.134 403.307 794.315 403.273L795.457 408.676C795.094 408.79 794.582 408.92 793.923 409.068C793.264 409.227 792.463 409.324 791.52 409.358C789.77 409.426 788.236 409.193 786.918 408.659C785.611 408.125 784.594 407.295 783.866 406.17C783.139 405.045 782.781 403.625 782.793 401.909V376.545ZM807.534 393.864V409H800.273V374.091H807.33V387.438H807.636C808.227 385.892 809.182 384.682 810.5 383.807C811.818 382.92 813.472 382.477 815.46 382.477C817.278 382.477 818.864 382.875 820.216 383.67C821.58 384.455 822.636 385.585 823.386 387.062C824.148 388.528 824.523 390.284 824.511 392.33V409H817.25V393.625C817.261 392.011 816.852 390.756 816.023 389.858C815.205 388.96 814.057 388.511 812.58 388.511C811.591 388.511 810.716 388.722 809.955 389.142C809.205 389.562 808.614 390.176 808.182 390.983C807.761 391.778 807.545 392.739 807.534 393.864Z" fill="white"/>
</svg>
